<svg xmlns="http://www.w3.org/2000/svg" viewBox="0 0 306 344.35"><path d="M302.11 258.26a27.11 27.11 0 003.89-13V99.14a27.11 27.11 0 00-3.89-13L153 172.18z" fill="#00599c"/><path d="M166.25 341.19l126.5-73a27.19 27.19 0 009.36-9.9L153 172.18 3.89 258.26a27.11 27.11 0 009.36 9.9l126.5 73c7.25 4.24 19.25 4.24 26.5.03z" fill="#004482"/><path d="M302.11 86.09a27.11 27.11 0 00-9.36-9.9l-126.5-73C159-1 147-1 139.75 3.16l-126.5 73C6 80.4 0 90.72 0 99.14v146.07a27.11 27.11 0 003.89 13L153 172.18z" fill="#659ad2"/><path d="M153 223.17a51 51 0 1144.19-76.48l44.14-25.55a102 102 0 100 102.06l-44.14-25.54A51.2 51.2 0 01153 223.17zm90.67-68h-11.34v11.33H221v11.33h11.33v11.34h11.34v-11.33H255v-11.33h-11.33zm42.5 11.33v-11.32h-11.34v11.33H263.5v11.33h11.33v11.34h11.34v-11.34h11.33v-11.33z" fill="#fff"/></svg>
