<svg
	version="1.1"
	aria-labelledby="go-logo-title"
	role="img"
	xmlns="http://www.w3.org/2000/svg"
	viewBox="0 0 64 64">
	<title id="go-logo-title">Go logo</title>
  <g transform="translate(8)">
    <g>
      <path d="M9.11,34.63c0.09,1.89,2,1,2.83.42s1-.09,1.12-1.2a18.13,18.13,0,0,0,.09-2.18,5.35,5.35,0,0,0-3.57.91c-0.52.38-1.49,1.58-.48,2" transform="translate(-8.49)" fill="#f6d2a2"/>
      <path d="M10.09,36a1.2,1.2,0,0,1-.54-0.12,1.24,1.24,0,0,1-.62-1.1,0.82,0.82,0,0,1-.45-0.65,2.3,2.3,0,0,1,1-1.66,5.5,5.5,0,0,1,3.69-.94h0.15v0.15a13,13,0,0,1-.05,1.71c0,0.17,0,.33,0,0.5-0.05.78-.2,0.9-0.6,1a2.23,2.23,0,0,0-.6.29A4.09,4.09,0,0,1,10.09,36Zm2.54-4.13a5,5,0,0,0-2.94.9,2,2,0,0,0-.84,1.34,0.5,0.5,0,0,0,.34.41l0.1,0v0.11a1,1,0,0,0,.42.9,2.62,2.62,0,0,0,2.13-.62,2.58,2.58,0,0,1,.68-0.34c0.26-.09.32-0.11,0.36-0.73,0-.17,0-0.33,0-0.5a14,14,0,0,0,.06-1.5H12.63Z" transform="translate(-8.49)" fill="#010101"/>
    </g>
    <g>
      <path d="M9.11,34.63a1.49,1.49,0,0,0,.75-0.42" transform="translate(-8.49)" fill="#c7b199"/>
      <path d="M9.11,34.81A0.18,0.18,0,0,1,9,34.46l0.12,0a1.08,1.08,0,0,0,.55-0.32,0.18,0.18,0,1,1,.29.22,1.4,1.4,0,0,1-.72.44l-0.12,0H9.11Z" transform="translate(-8.49)" fill="#010101"/>
    </g>
    <g>
      <path d="M13.47,12.14c-7.23-2-1.85-11.23,4-7.45Z" transform="translate(-8.49)" fill="#74cddd"/>
      <path d="M13.56,12.35l-0.14,0c-2.06-.58-3.33-1.8-3.57-3.43a4.79,4.79,0,0,1,2.23-4.52,4.84,4.84,0,0,1,5.44.18l0.14,0.09Zm1-8.38a4.23,4.23,0,0,0-2.31.69,4.42,4.42,0,0,0-2.07,4.17c0.22,1.45,1.34,2.55,3.17,3.1l3.8-7.17A5,5,0,0,0,14.59,4Z" transform="translate(-8.49)" fill="#010101"/>
    </g>
    <g>
      <path d="M45.59,4c5.72-4,10.89,5,4.24,7.33Z" transform="translate(-8.49)" fill="#74cddd"/>
      <path d="M49.75,11.55l-4.4-7.6,0.13-.09a4.72,4.72,0,0,1,5.25-.44A4.85,4.85,0,0,1,53.12,7.9c-0.1,1-.64,2.71-3.23,3.6ZM45.83,4.05l4.08,7.06a3.91,3.91,0,0,0,2.85-3.24,4.48,4.48,0,0,0-2.21-4.15A4.25,4.25,0,0,0,45.83,4.05Z" transform="translate(-8.49)" fill="#010101"/>
    </g>
    <g>
      <path d="M46.82,57.87c1.45,0.9,4.11,3.62,1.93,4.94-2.09,1.92-3.27-2.11-5.11-2.66A5.09,5.09,0,0,1,46.82,57.87Z" transform="translate(-8.49)" fill="#f6d2a2"/>
      <path d="M47.64,63.5H47.56c-0.83-.05-1.51-0.86-2.17-1.63a4.66,4.66,0,0,0-1.8-1.55l-0.24-.07L43.5,60a5.31,5.31,0,0,1,3.29-2.35h0.07l0.06,0c0.93,0.58,2.85,2.26,2.84,3.78a1.67,1.67,0,0,1-.9,1.45A1.81,1.81,0,0,1,47.64,63.5Zm-3.72-3.44a5.73,5.73,0,0,1,1.73,1.57,3.49,3.49,0,0,0,1.92,1.51,1.43,1.43,0,0,0,1-.47l0,0a1.32,1.32,0,0,0,.74-1.16c0-1.22-1.54-2.75-2.61-3.44A4.7,4.7,0,0,0,43.93,60.06Z" transform="translate(-8.49)" fill="#010101"/>
    </g>
    <path d="M48.75,63a0.18,0.18,0,0,1-.16-0.1,6.67,6.67,0,0,1-.28-0.68A3,3,0,0,0,47.65,61a0.18,0.18,0,1,1,.25-0.26,3.31,3.31,0,0,1,.74,1.32,6.41,6.41,0,0,0,.27.64,0.18,0.18,0,0,1-.08.24Z" transform="translate(-8.49)" fill="#010101"/>
    <g>
      <path d="M20.85,60.94c-1.71.26-2.67,1.8-4.09,2.58a1.24,1.24,0,0,1-2-.47,0.65,0.65,0,0,1-.52-0.24c-1.24-2,1.29-3.39,2.62-4.37C18.73,58.08,19.88,59.67,20.85,60.94Z" transform="translate(-8.49)" fill="#f6d2a2"/>
      <path d="M15.86,64a1.22,1.22,0,0,1-.32,0,1.48,1.48,0,0,1-.87-0.75h0a0.6,0.6,0,0,1-.49-0.26l0,0c-1.2-1.89.84-3.32,2.19-4.27l0.47-.34,0,0h0c1.89-.38,3.09,1.18,4.05,2.44l0.27,0.36-0.3,0a5.17,5.17,0,0,0-2.53,1.45,9.19,9.19,0,0,1-1.5,1.12A2,2,0,0,1,15.86,64Zm-1.2-1.16a0.49,0.49,0,0,1,.21,0l0.05,0L15,63a1.16,1.16,0,0,0,.67.61,1.37,1.37,0,0,0,1-.24,8.93,8.93,0,0,0,1.45-1.08,6,6,0,0,1,2.41-1.47c-0.92-1.2-2-2.5-3.57-2.2l-0.45.32c-1.38,1-3.09,2.18-2.1,3.77a0.29,0.29,0,0,0,.21.14h0Z" transform="translate(-8.49)" fill="#010101"/>
    </g>
    <path d="M14.79,63.24h0A0.18,0.18,0,0,1,14.61,63a2.74,2.74,0,0,1,.58-1.31,4.22,4.22,0,0,0,.38-0.63,0.18,0.18,0,0,1,.33.15,4.56,4.56,0,0,1-.41.69A2.43,2.43,0,0,0,15,63.07,0.18,0.18,0,0,1,14.79,63.24Z" transform="translate(-8.49)" fill="#010101"/>
    <path d="M13.77,9.6c-1-.5-1.65-1.19-1.07-2.29s1.54-.91,2.5-0.41Z" transform="translate(-8.49)" fill="#010101"/>
    <path d="M48.32,8.64c1-.5,1.65-1.19,1.07-2.29s-1.54-.91-2.5-0.41Z" transform="translate(-8.49)" fill="#010101"/>
    <g>
      <path d="M54.89,34.39c-0.09,1.89-2,1-2.83.42s-1-.09-1.12-1.2a18.13,18.13,0,0,1-.09-2.18,5.35,5.35,0,0,1,3.57.91c0.52,0.38,1.49,1.58.48,2" transform="translate(-8.49)" fill="#f6d2a2"/>
      <path d="M53.91,35.72A4.09,4.09,0,0,1,52,35a2.23,2.23,0,0,0-.6-0.29c-0.4-.14-0.55-0.26-0.6-1,0-.17,0-0.33,0-0.5a13,13,0,0,1-.05-1.71V31.26h0.15a5.5,5.5,0,0,1,3.69.94,2.3,2.3,0,0,1,1,1.66,0.82,0.82,0,0,1-.45.65,1.24,1.24,0,0,1-.62,1.1A1.21,1.21,0,0,1,53.91,35.72ZM51,31.6a14.05,14.05,0,0,0,.06,1.5c0,0.17,0,.33,0,0.5,0,0.61.09,0.63,0.36,0.73a2.58,2.58,0,0,1,.68.34,2.61,2.61,0,0,0,2.13.62,1,1,0,0,0,.42-0.9V34.27l0.1,0a0.5,0.5,0,0,0,.34-0.41,2,2,0,0,0-.84-1.34A5.1,5.1,0,0,0,51,31.6Z" transform="translate(-8.49)" fill="#010101"/>
    </g>
    <g>
      <path d="M54.89,34.39A1.49,1.49,0,0,1,54.14,34" transform="translate(-8.49)" fill="#c7b199"/>
      <path d="M54.89,34.57H54.82l-0.12,0A1.4,1.4,0,0,1,54,34.07a0.18,0.18,0,1,1,.29-0.22,1.08,1.08,0,0,0,.55.32l0.12,0A0.18,0.18,0,0,1,54.89,34.57Z" transform="translate(-8.49)" fill="#010101"/>
    </g>
    <g>
      <path d="M31.28,0.18c7.24,0,14,1,17.56,8,3.17,7.79,2,16.2,2.53,24.43,0.42,7.07,1.34,15.24-1.94,21.8C46,61.29,37.34,63,30.24,62.77c-5.58-.2-12.32-2-15.47-7.12-3.7-6-1.95-14.88-1.68-21.53,0.32-7.88-2.14-15.79.45-23.51,2.69-8,9.93-9.81,17.73-10.43" transform="translate(-8.49)" fill="#74cddd"/>
      <path d="M31.47,63l-1.24,0a26.39,26.39,0,0,1-8.71-1.74,13.93,13.93,0,0,1-6.91-5.47c-3-4.84-2.46-11.52-2-17.42,0.12-1.48.23-2.89,0.28-4.21a67.83,67.83,0,0,0-.36-8.38c-0.42-5-.86-10.17.82-15.18a13.28,13.28,0,0,1,7-8.09c2.7-1.32,6-2.08,10.85-2.46h0C38.34,0,45.38,1,49,8.09h0c2.32,5.7,2.35,11.82,2.39,17.74,0,2.22,0,4.51.16,6.75,0,0.68.08,1.37,0.13,2.06,0.42,6.49.9,13.86-2.09,19.82C45.85,61.92,36.45,63,31.47,63ZM31.28,0.36C23.75,1,16.41,2.62,13.71,10.67c-1.66,4.94-1.22,10.07-.81,15a68.09,68.09,0,0,1,.36,8.42c-0.05,1.33-.17,2.74-0.28,4.23-0.46,5.84-1,12.47,1.93,17.2,1.23,2,5.19,6.67,15.33,7,4.39,0.16,15-.34,19-8.28,2.94-5.88,2.47-13.19,2.05-19.64,0-.7-0.09-1.39-0.13-2.06C51.05,30.36,51,28.06,51,25.84c0-5.88-.06-12-2.36-17.6a12.87,12.87,0,0,0-7.29-6.51A29.9,29.9,0,0,0,31.28.36Z" transform="translate(-8.49)" fill="#010101"/>
    </g>
    <g>
      <path d="M32.55,9.89c1.3,7.55,13.64,5.56,11.87-2.06C42.83,1,32.12,2.89,32.55,9.89" transform="translate(-8.49)" fill="#fff"/>
      <path d="M38.42,14.82a6.91,6.91,0,0,1-2.26-.37,5.59,5.59,0,0,1-3.78-4.53v0a5.76,5.76,0,0,1,1.56-4.44,6.81,6.81,0,0,1,4-2A6.4,6.4,0,0,1,42,4.18a5.45,5.45,0,0,1,2.59,3.61,5.28,5.28,0,0,1-1.54,5.36A7,7,0,0,1,38.42,14.82ZM32.73,9.87a5.25,5.25,0,0,0,3.55,4.25,6.83,6.83,0,0,0,6.55-1.24,5,5,0,0,0,1.43-5A5.34,5.34,0,0,0,38,3.82,5.77,5.77,0,0,0,32.73,9.87Z" transform="translate(-8.49)" fill="#010101"/>
    </g>
    <g>
      <path d="M17.8,11.12C19.48,17.69,30,16,29.61,9.41,29.14,1.51,16.19,3,17.8,11.12" transform="translate(-8.49)" fill="#fff"/>
      <path d="M23.42,15.45a6.46,6.46,0,0,1-3.07-.75,5.45,5.45,0,0,1-2.71-3.55h0A5.51,5.51,0,0,1,19.52,5.5a7.1,7.1,0,0,1,7.06-.9,5.34,5.34,0,0,1,3.2,4.8c0.21,3.5-2.57,5.54-5.23,6A7.31,7.31,0,0,1,23.42,15.45ZM18,11.08a5.46,5.46,0,0,0,6.53,4c2.52-.4,5.15-2.32,4.95-5.61a5,5,0,0,0-3-4.52,6.75,6.75,0,0,0-6.71.86A5.19,5.19,0,0,0,18,11.08Z" transform="translate(-8.49)" fill="#010101"/>
    </g>
    <g>
      <path d="M34,19a17,17,0,0,1,0,3.13,2,2,0,0,1-1.17.72,1.72,1.72,0,0,1-1.31-1,22.22,22.22,0,0,1,.09-3.54Z" transform="translate(-8.49)" fill="#fff"/>
      <path d="M32.94,23H32.89a1.89,1.89,0,0,1-1.45-1.13v0a11.88,11.88,0,0,1,0-2.43c0-.37.06-0.76,0.07-1.14V18l2.7,0.83V19c0,0.32,0,.66.05,1a8.57,8.57,0,0,1,0,2.15v0.05a1.5,1.5,0,0,1-.95.68L33,23Zm-1.16-1.26a1.53,1.53,0,0,0,1.12.89l0.28-.11A1.2,1.2,0,0,0,33.91,22a8.43,8.43,0,0,0,0-2c0-.31,0-0.61-0.05-0.91l-2-.61c0,0.31,0,.62-0.06.92A11.54,11.54,0,0,0,31.77,21.73Z" transform="translate(-8.49)" fill="#010101"/>
    </g>
    <g>
      <ellipse cx="12.21" cy="10.04" rx="1.78" ry="1.93" fill="#010101"/>
      <ellipse cx="13.02" cy="10.48" rx="0.42" ry="0.49" fill="#fff"/>
    </g>
    <g>
      <ellipse cx="27.11" cy="9.56" rx="1.75" ry="1.93" fill="#010101"/>
      <ellipse cx="27.9" cy="10" rx="0.41" ry="0.49" fill="#fff"/>
    </g>
    <g>
      <path d="M29,18.85c-0.78,1.88.43,5.64,2.54,2.87a22.22,22.22,0,0,1,.09-3.54Z" transform="translate(-8.49)" fill="#fff"/>
      <path d="M30.09,22.89a1,1,0,0,1-.52-0.14c-0.85-.49-1.38-2.5-0.78-4l0-.08,3-.76v0.24c0,0.39,0,.78-0.07,1.15a11.43,11.43,0,0,0,0,2.36v0.07l0,0.06A2.11,2.11,0,0,1,30.09,22.89ZM29.1,19c-0.43,1.17-.09,3,0.66,3.43,0.54,0.31,1.14-.23,1.56-0.77a12.23,12.23,0,0,1,0-2.36c0-.29,0-0.6.06-0.9Z" transform="translate(-8.49)" fill="#010101"/>
    </g>
    <g>
      <g>
        <path d="M29.23,15.23a2.29,2.29,0,0,0-1.88,3.2c1,1.8,3.22-.16,4.6,0,1.59,0,2.9,1.68,4.18.3,1.42-1.54-.61-3-2.2-3.71Z" transform="translate(-8.49)" fill="#f6d2a2"/>
        <path d="M35,19.49a4,4,0,0,1-1.46-.41,4.41,4.41,0,0,0-1.58-.44h0A4,4,0,0,0,30.3,19c-1.12.39-2.39,0.83-3.11-.46a2.16,2.16,0,0,1,0-2.1,2.56,2.56,0,0,1,2-1.37h0L34,14.86l0,0c1.18,0.5,2.53,1.41,2.76,2.47A1.91,1.91,0,0,1,35,19.49Zm-3-1.21a4.7,4.7,0,0,1,1.7.47c0.9,0.38,1.61.67,2.33-.11a1.33,1.33,0,0,0,.41-1.21c-0.2-.92-1.47-1.76-2.51-2.2l-4.65.19a2.22,2.22,0,0,0-1.7,1.18,1.81,1.81,0,0,0,0,1.75c0.57,1,1.59.67,2.68,0.3A4.24,4.24,0,0,1,32,18.28Z" transform="translate(-8.49)" fill="#231f20"/>
      </g>
      <path d="M29,15.16c-0.11-2.5,4.67-2.82,5.23-.72s-5,2.58-5.23.72h0Z" transform="translate(-8.49)" fill="#010101"/>
    </g>
  </g>
</svg>
