<svg xmlns="http://www.w3.org/2000/svg" viewBox="0 0 64 33.66"><defs><style>.a{fill:none;}.b{clip-path:url(#a);}.c{fill:url(#b);}.d{fill:#787bb3;}.e{fill:#010101;}.f{fill:#fff;}</style><clipPath id="a"><path class="a" d="M0 16.83c0 9.3 14.33 16.83 32 16.83s32-7.54 32-16.83C64 7.53 49.67 0 32 0S0 7.53 0 16.83"/></clipPath><radialGradient id="b" cx="-988.26" cy="1337.66" r=".09" gradientTransform="translate(448509.31 -607050.24) scale(453.82)" gradientUnits="userSpaceOnUse"><stop offset="0" stop-color="#afb2d5"/><stop offset=".3" stop-color="#afb2d5"/><stop offset=".75" stop-color="#484d8a"/><stop offset="1" stop-color="#484d8a"/></radialGradient></defs><title>Artboard 1</title><path class="b c" d="M0 16.83c0 9.3 14.33 16.83 32 16.83s32-7.54 32-16.83C64 7.53 49.67 0 32 0S0 7.53 0 16.83"/><path class="d" d="M32 32.41c17 0 30.75-7 30.75-15.58S49 1.25 32 1.25 1.25 8.22 1.25 16.83 15 32.41 32 32.41"/><path class="e" d="M17.39 18.76a5.1 5.1 0 0 0 3.1-.77 4.14 4.14 0 0 0 1.34-2.59 2.79 2.79 0 0 0-.25-2.4 3.5 3.5 0 0 0-2.58-.6h-2.19l-1.24 6.37h1.82zm-7.3 7.84a.35.35 0 0 1-.34-.41L13 9.32a.35.35 0 0 1 .34-.32h7.07a6.22 6.22 0 0 1 4.94 1.79 5.6 5.6 0 0 1 1 5 7.68 7.68 0 0 1-2.41 4.32 6.86 6.86 0 0 1-2.57 1.54 11.66 11.66 0 0 1-3.54.45h-2.91l-.82 4.2a.35.35 0 0 1-.34.28h-3.67z"/><path class="f" d="M17.1 12.74H19c1.55 0 2.09.34 2.28.54a2.55 2.55 0 0 1 .17 2.06 3.82 3.82 0 0 1-1.21 2.38 4.79 4.79 0 0 1-2.89.69H16zm3.34-4h-7.07a.69.69 0 0 0-.68.56L9.41 26.12a.69.69 0 0 0 .54.82h3.81a.69.69 0 0 0 .68-.56l.76-3.92h2.58a12 12 0 0 0 3.64-.46 7.21 7.21 0 0 0 2.7-1.62 8 8 0 0 0 2.52-4.55 5.92 5.92 0 0 0-1-5.26 6.54 6.54 0 0 0-5.17-1.91m-5.32 10.45h2.24a5.4 5.4 0 0 0 3.31-.84 4.45 4.45 0 0 0 1.47-2.8 3.06 3.06 0 0 0-.34-2.64A3.76 3.76 0 0 0 19 12h-2.48l-1.37 7.06m5.28-9.72q3.19 0 4.65 1.67a5.25 5.25 0 0 1 .92 4.72 7.33 7.33 0 0 1-2.34 4.1 6.49 6.49 0 0 1-2.45 1.47 11.26 11.26 0 0 1-3.43.44h-3.15l-.87 4.48h-3.67l3.28-16.87h7.07"/><path class="e" d="M34.73 22.12a.35.35 0 0 1-.34-.41l1.45-7.46a1.83 1.83 0 0 0-.1-1.43 2.19 2.19 0 0 0-1.57-.35h-2.63l-1.82 9.36a.35.35 0 0 1-.34.28h-3.65a.35.35 0 0 1-.34-.41l3.28-16.87a.35.35 0 0 1 .33-.28h3.65A.35.35 0 0 1 33 5l-.8 4H35c2.15 0 3.61.38 4.46 1.16s1.14 2.07.8 3.79l-1.49 7.84a.35.35 0 0 1-.34.28h-3.7z"/><path class="f" d="M32.66 4.21H29a.69.69 0 0 0-.68.56L25 21.64a.69.69 0 0 0 .54.82h3.79a.69.69 0 0 0 .68-.56l1.82-9.08h2.34a2 2 0 0 1 1.32.24 1.67 1.67 0 0 1 0 1.13L34 21.64a.69.69 0 0 0 .54.82h3.84a.69.69 0 0 0 .68-.56l1.53-7.85c.36-1.84 0-3.22-.91-4.11S37.23 8.7 35 8.7h-2.37l.71-3.7a.69.69 0 0 0-.54-.82h-.14m0 .69l-.87 4.48H35q3.07 0 4.23 1.07t.77 3.5l-1.53 7.85h-3.7l1.45-7.46a2 2 0 0 0-.22-1.74 2.56 2.56 0 0 0-1.83-.46h-2.92l-1.88 9.66h-3.64L29 4.9h3.65"/><path class="e" d="M46.07 18.76a5.1 5.1 0 0 0 3.1-.77 4.14 4.14 0 0 0 1.34-2.59 2.79 2.79 0 0 0-.25-2.4 3.5 3.5 0 0 0-2.53-.66h-2.24l-1.24 6.37h1.82zm-7.3 7.84a.35.35 0 0 1-.34-.41l3.28-16.87A.35.35 0 0 1 42 9h7.07A6.22 6.22 0 0 1 54 10.83a5.6 5.6 0 0 1 1 5 7.68 7.68 0 0 1-2.41 4.32A6.86 6.86 0 0 1 50 21.66a11.66 11.66 0 0 1-3.54.45H43.6l-.82 4.2a.35.35 0 0 1-.34.28h-3.67z"/><path class="f" d="M45.78 12.74h2c1.55 0 2.09.34 2.28.54a2.55 2.55 0 0 1 .17 2.06A3.82 3.82 0 0 1 49 17.72a4.79 4.79 0 0 1-2.89.69h-1.43zm3.34-4H42a.69.69 0 0 0-.68.56l-3.23 16.82a.69.69 0 0 0 .54.82h3.81a.69.69 0 0 0 .68-.56l.76-3.92h2.58A12 12 0 0 0 50.1 22a7.21 7.21 0 0 0 2.7-1.62 8 8 0 0 0 2.53-4.55 5.92 5.92 0 0 0-1-5.26 6.54 6.54 0 0 0-5.17-1.91m-5.33 10.45h2.24a5.4 5.4 0 0 0 3.31-.84 4.45 4.45 0 0 0 1.47-2.8 3.06 3.06 0 0 0-.34-2.64 3.76 3.76 0 0 0-2.79-.77h-2.51l-1.37 7.06m5.28-9.72q3.19 0 4.65 1.67a5.25 5.25 0 0 1 .88 4.67 7.33 7.33 0 0 1-2.31 4.09 6.49 6.49 0 0 1-2.45 1.47 11.26 11.26 0 0 1-3.43.44h-3.14l-.87 4.48h-3.68L42 9.39h7.07"/></svg>
