<svg xmlns="http://www.w3.org/2000/svg" viewBox="0 0 586 586"><defs><style>.cls-1{fill:#157486;}.cls-2{fill:#b3b3b3;}.cls-3{opacity:0.3;}.cls-16,.cls-18,.cls-4,.cls-5,.cls-6,.cls-7{fill:none;stroke-miterlimit:10;}.cls-4,.cls-5,.cls-6{stroke:#000;}.cls-4,.cls-7{stroke-width:5px;}.cls-16,.cls-5,.cls-6{stroke-linecap:round;}.cls-16,.cls-5{stroke-width:8px;}.cls-6{stroke-width:7px;}.cls-7{stroke:#f2f2f2;}.cls-8{fill:#fee066;}.cls-9{fill:#e86c62;}.cls-10{fill:#ccc;}.cls-11{fill:#faca42;}.cls-12{fill:#78a5fa;}.cls-13{fill:#348cee;}.cls-14{fill:#404a63;}.cls-15{fill:#0d9ee1;}.cls-16{stroke:#ccc;}.cls-17{fill:#e6e6e6;}.cls-18{stroke:#e6e6e6;stroke-width:26px;}.cls-19{fill:#c64946;}</style></defs><title>VEctorРесурс 1</title><g id="Слой_2" data-name="Слой 2"><g id="Layer_1" data-name="Layer 1"><path class="cls-1" d="M586,293a291.67,291.67,0,0,1-34.63,138.3q-4.49,8.37-9.49,16.4a294.71,294.71,0,0,1-65.42,73.76q-5.32,4.29-10.87,8.33c-3.8,2.77-7.67,5.47-11.61,8.06l-.68.44q-8.07,5.26-16.48,10l-2.31,1.28q-6,3.35-12.24,6.39c-.2.11-.38.2-.58.29q-11.78,5.79-24.16,10.51a290.15,290.15,0,0,1-47.91,13.73l-1.81.36-52.1,4.85L293,586c-1.43,0-2.87,0-4.29,0a294.52,294.52,0,0,1-55.07-6c-1.81-.37-3.61-.76-5.42-1.17a291.42,291.42,0,0,1-93.44-39.19c-.92-.58-1.84-1.18-2.76-1.78q-7.32-4.83-14.35-10.08c-1.15-.86-2.28-1.72-3.41-2.6-1.59-1.22-3.17-2.45-4.72-3.71A294.71,294.71,0,0,1,44.12,447.7q-5-8-9.49-16.4A291.67,291.67,0,0,1,0,293C0,131.18,131.18,0,293,0S586,131.18,586,293Z"/><path class="cls-2" d="M294,229h5.6l-.36,2.21,4.1-2.21h.14l-.88.56.43.88,6-3.82-4.36-2.79H294Zm9.69-.19.55-.3-.55.35Z"/><g class="cls-3"><path d="M286,205h-6.59l-.23-1.41-2.06,1.28-.15-.31-6,3.81,5.29,3.38L271,215.12l5.29,3.37L271,221.86l.64.41h0l.26.14,4.41,2.82L271,228.62l6,3.82.43-.88-.88-.56h.14l4.1,2.21L280.4,231H286Zm-9.69,25.86-.55-.35.55.3Z"/><polygon points="301.71 218.49 307 215.12 301.71 211.75 307 208.37 301.03 204.56 300.88 204.87 298.82 203.59 298.59 205 292 205 292 225.83 302.64 225.83 301.71 225.24 306.12 222.42 306.38 222.28 306.36 222.27 307 221.87 301.71 218.49"/><polyline class="cls-4" points="259.05 116.87 243.56 95.71 248.63 87.15 228 89.81 238.65 71.84 218.03 74.5 228.68 56.53 217.61 57.95 208.69 45.95"/><circle cx="204.31" cy="38.02" r="14"/><rect x="245.26" y="103.3" width="20" height="17" rx="8.5" ry="8.5" transform="translate(-23.41 111.93) rotate(-23.68)"/><polyline class="cls-4" points="317.73 116.87 333.22 95.71 328.14 87.15 348.77 89.81 338.12 71.84 358.75 74.5 348.1 56.53 359.16 57.95 368.08 45.95"/><circle cx="372.46" cy="38.02" r="14"/><rect x="311.51" y="103.3" width="20" height="17" rx="8.5" ry="8.5" transform="translate(571.05 343.31) rotate(-156.32)"/><rect x="154.85" y="182.57" width="14.9" height="61.84" transform="translate(-96.81 144.34) rotate(-37.81)"/><polygon points="169.56 247.1 241.11 259.67 242.38 252.31 170.84 239.75 169.56 247.1"/><polygon points="198.1 306.3 210.64 314.41 250.2 253.49 237.66 245.38 198.1 306.3"/><rect x="155.01" y="319.02" width="61.99" height="7.47" transform="matrix(0.97, -0.26, 0.26, 0.97, -76.16, 58.1)"/><rect x="152.15" y="304.45" width="61.99" height="14.94" transform="translate(-73.49 57.02) rotate(-14.77)"/><polygon points="216.91 318.46 256.48 257.54 250.2 253.49 210.64 314.41 216.91 318.46"/><polygon points="173.31 225.01 170.68 240.13 245 253.18 247.62 238.06 173.31 225.01"/><rect x="149.78" y="189.35" width="7.47" height="61.99" transform="translate(-102.86 140.39) rotate(-37.81)"/><rect x="381.68" y="206.01" width="61.99" height="14.94" transform="translate(-8.98 408.61) rotate(-52.19)"/><polygon points="405.48 247.1 333.93 259.67 332.66 252.31 404.2 239.75 405.48 247.1"/><polygon points="400.97 225.01 403.6 240.17 330.42 253.03 327.79 237.87 400.97 225.01"/><rect x="390.53" y="216.61" width="61.99" height="7.47" transform="translate(-10.99 418.26) rotate(-52.19)"/><polygon points="373.01 306.3 360.47 314.41 320.9 253.49 333.45 245.38 373.01 306.3"/><path d="M414.12,334.27l-52.72-13.9a7.47,7.47,0,0,1-5.32-9.13h0L416,327.05Z"/><path d="M419.84,312.61,416,327.05l-59.95-15.81L358,304a7.46,7.46,0,0,1,9.12-5.32Z"/><polygon points="354.19 318.46 314.63 257.54 320.9 253.49 360.47 314.41 354.19 318.46"/><polygon points="289 220.37 274.97 225.83 302.56 225.83 289 220.37"/><polygon points="323.68 234.34 323.31 234.19 321.26 233.36 313.26 230.14 306.71 227.5 306.34 227.35 302.56 225.83 274.97 225.83 270.55 227.55 270.18 227.69 263.26 230.39 255.26 233.51 253.57 234.17 253.21 234.31 244.72 237.61 244.72 393.42 331.8 393.42 331.8 237.61 323.68 234.34"/><rect x="276.45" y="209.67" width="23.62" height="15.43"/><path d="M336.5,146.6c.1,29.06-20,57.23-41.39,70.76a12.19,12.19,0,0,1-13,0C260.66,204,240.37,176,240.27,146.93c-.11-32,21.39-44.12,48-44.21S336.4,114.62,336.5,146.6Z"/><path d="M336.5,146.6c.1,29.06-20,57.23-41.39,70.76a12.2,12.2,0,0,1-13,0C260.66,204,240.37,176,240.27,146.92a63.11,63.11,0,0,1,.39-7.44c3.09,26.37,21.76,50.91,41.44,63.16a12.18,12.18,0,0,0,12.95,0c19.59-12.39,38.1-37,41-63.44A62.68,62.68,0,0,1,336.5,146.6Z"/><path d="M277.46,89.47v14h10.93V82C282.35,82,277.46,85.35,277.46,89.47Z"/><path d="M299.31,89.47c0-4.12-4.89-7.47-10.92-7.47v21.49h10.92Z"/><path d="M278.14,102.08c-3,0-5.46,1.68-5.46,3.74h15.71v-3.74Z"/><path d="M298.63,102.08H288.39v3.74h15.7C304.09,103.76,301.64,102.08,298.63,102.08Z"/><rect x="229.26" y="131" width="118" height="46" rx="23" ry="23"/><path d="M259.69,145.47c6.5,8.26,8,19.76,2.31,24.25s-16.53.29-23-8-5.32-16.3.41-20.8S253.2,137.21,259.69,145.47Z"/><circle cx="241.73" cy="151.16" r="4.96"/><path d="M318,145.34c-6.44,8.3-7.89,19.81-2.14,24.26s16.52.18,23-8.12,5.2-16.34-.55-20.8S324.38,137,318,145.34Z"/><circle cx="335.95" cy="150.9" r="4.96"/><rect x="255.26" y="252" width="66" height="66" rx="13.5" ry="13.5"/><circle cx="177.26" cy="236" r="14"/><path d="M181.83,230a7.55,7.55,0,0,0-10.58,1.44l12,9.14A7.55,7.55,0,0,0,181.83,230Z"/><path d="M183.27,240.57l-12-9.14a7.55,7.55,0,0,0,12,9.14Z"/><circle cx="399.26" cy="236" r="14"/><circle cx="360.26" cy="309" r="14"/><circle cx="209.26" cy="308" r="14"/><polyline class="cls-5" points="466.39 167.06 469.2 182.69 436.05 188.65 430.43 157.39 447.01 154.41"/><circle cx="430.43" cy="157.39" r="5.75"/><circle cx="469.05" cy="182.59" r="5.75"/><circle cx="434.26" cy="191" r="14"/><polyline class="cls-6" points="109.61 168.06 106.8 183.69 139.95 189.65 145.57 158.39 128.99 155.41"/><circle cx="145.57" cy="158.39" r="5.75"/><circle cx="106.95" cy="183.59" r="5.75"/><circle cx="141.74" cy="192" r="14"/><path d="M147.32,187.5a7.56,7.56,0,0,0-10.56-1.56l9,12.12A7.56,7.56,0,0,0,147.32,187.5Z"/><path d="M145.76,198.06l-9-12.12a7.55,7.55,0,1,0,9,12.12Z"/><polyline class="cls-5" points="108.7 337 119.87 348.28 143.81 324.58 121.47 302.02 109.5 313.87"/><circle cx="121.47" cy="302.02" r="5.75"/><circle cx="119.88" cy="348.1" r="5.75"/><circle cx="146.76" cy="324.47" r="14"/><path d="M146.29,317.32a7.55,7.55,0,0,0-7.35,7.74l15.09-.39A7.54,7.54,0,0,0,146.29,317.32Z"/><path d="M154,324.67l-15.09.39a7.55,7.55,0,1,0,15.09-.39Z"/><polyline class="cls-5" points="461.3 337 450.13 348.28 426.19 324.58 448.53 302.02 460.5 313.87"/><circle cx="448.53" cy="302.02" r="5.75"/><circle cx="450.12" cy="348.1" r="5.75"/><circle cx="423.24" cy="324.47" r="14"/><path d="M423.71,317.32a7.55,7.55,0,0,1,7.35,7.74L416,324.67A7.54,7.54,0,0,1,423.71,317.32Z"/><path d="M416,324.67l15.09.39a7.55,7.55,0,0,1-15.09-.39Z"/><path d="M204.33,302.29a7.53,7.53,0,0,0-.78,10.64L215,303.07A7.53,7.53,0,0,0,204.33,302.29Z"/><path d="M215,303.07l-11.42,9.86A7.54,7.54,0,0,0,215,303.07Z"/><path d="M428.32,186.35a7.54,7.54,0,0,0,1.29,10.59l9.3-11.88A7.54,7.54,0,0,0,428.32,186.35Z"/><path d="M438.91,185.06l-9.3,11.88a7.54,7.54,0,0,0,9.3-11.88Z"/><path d="M394.65,230a7.56,7.56,0,0,0-1.37,10.59l12-9.22A7.56,7.56,0,0,0,394.65,230Z"/><path d="M405.24,231.39l-12,9.22a7.55,7.55,0,0,0,12-9.22Z"/><path d="M364.79,303a7.53,7.53,0,0,0-10.56,1.5l12.06,9.06A7.53,7.53,0,0,0,364.79,303Z"/><path d="M366.29,313.53l-12.06-9.06a7.54,7.54,0,1,0,12.06,9.06Z"/><path d="M305.41,280.94a17.77,17.77,0,0,0-2.69-6.35l1.75-2.37L300,267.79l-2.44,1.8a17.7,17.7,0,0,0-6.25-2.53l-.46-3.06h-6.26l-.47,3.11a17.89,17.89,0,0,0-6.13,2.56l-2.55-1.88-4.42,4.43,1.87,2.55a17.89,17.89,0,0,0-2.56,6.13l-3.11.47v6.26l3.06.46a17.7,17.7,0,0,0,2.53,6.25l-1.79,2.44,4.42,4.43,2.37-1.75a18,18,0,0,0,6.35,2.69l.43,2.85h6.26l.43-2.8a17.82,17.82,0,0,0,6.46-2.66l2.26,1.67,4.43-4.43-1.67-2.26a17.79,17.79,0,0,0,2.66-6.47l2.8-.42v-6.26Zm-17.53,14.23a10.55,10.55,0,1,1,10.55-10.55A10.54,10.54,0,0,1,287.88,295.17Z"/><path d="M262.51,191.26l-18.23,28.07a.71.71,0,0,0,1,.95l12.82-10.54-.81,5.3a.82.82,0,0,0,1.41.69l15.38-16.65Z"/><path d="M314,191.26l18.23,28.07a.71.71,0,0,1-1,.95l-12.82-10.54.81,5.3a.82.82,0,0,1-1.41.69l-15.38-16.65Z"/></g><path class="cls-2" d="M291,203h-6.59l-.23-1.41-2.06,1.28-.15-.31-6,3.81,5.29,3.38L276,213.12l5.29,3.37L276,219.86l.64.41h0l.26.14,4.41,2.82L276,226.62l6,3.82.43-.88-.88-.56h.14l4.1,2.21L285.4,229H291Zm-9.69,25.86-.55-.35.55.3Z"/><polygon class="cls-2" points="306.71 216.49 312 213.12 306.71 209.75 312 206.37 306.03 202.56 305.88 202.87 303.82 201.59 303.59 203 297 203 297 223.83 307.64 223.83 306.71 223.24 311.12 220.42 311.38 220.28 311.36 220.27 312 219.87 306.71 216.49"/><polyline class="cls-7" points="264.05 114.87 248.56 93.71 253.63 85.15 233 87.81 243.65 69.84 223.03 72.5 233.68 54.53 222.61 55.95 213.69 43.95"/><circle class="cls-8" cx="209.31" cy="36.02" r="14"/><rect class="cls-9" x="250.26" y="101.3" width="20" height="17" rx="8.5" ry="8.5" transform="matrix(0.92, -0.4, 0.4, 0.92, -22.18, 113.77)"/><polyline class="cls-7" points="322.73 114.87 338.22 93.71 333.14 85.15 353.77 87.81 343.12 69.84 363.75 72.5 353.1 54.53 364.16 55.95 373.08 43.95"/><circle class="cls-8" cx="377.46" cy="36.02" r="14"/><rect class="cls-9" x="316.51" y="101.3" width="20" height="17" rx="8.5" ry="8.5" transform="translate(581.44 341.49) rotate(-156.32)"/><rect class="cls-10" x="159.85" y="180.57" width="14.9" height="61.84" transform="translate(-94.53 146.99) rotate(-37.81)"/><polygon class="cls-2" points="174.56 245.1 246.11 257.67 247.38 250.31 175.84 237.75 174.56 245.1"/><polygon class="cls-10" points="203.1 304.3 215.64 312.41 255.2 251.49 242.66 243.38 203.1 304.3"/><rect class="cls-2" x="160.01" y="317.02" width="61.99" height="7.47" transform="matrix(0.97, -0.26, 0.26, 0.97, -75.48, 59.31)"/><rect class="cls-10" x="157.15" y="302.45" width="61.99" height="14.94" transform="translate(-72.81 58.23) rotate(-14.77)"/><polygon class="cls-2" points="221.91 316.46 261.48 255.54 255.2 251.49 215.64 312.41 221.91 316.46"/><polygon class="cls-10" points="178.31 223.01 175.68 238.13 250 251.18 252.62 236.06 178.31 223.01"/><rect class="cls-2" x="154.78" y="187.35" width="7.47" height="61.99" transform="translate(-100.58 143.04) rotate(-37.81)"/><rect class="cls-10" x="386.68" y="204.01" width="61.99" height="14.94" transform="translate(-5.47 411.78) rotate(-52.19)"/><polygon class="cls-2" points="410.48 245.1 338.93 257.67 337.66 250.31 409.2 237.75 410.48 245.1"/><polygon class="cls-10" points="405.97 223.01 408.6 238.17 335.42 251.03 332.79 235.87 405.97 223.01"/><rect class="cls-2" x="395.53" y="214.61" width="61.99" height="7.47" transform="translate(-7.47 421.43) rotate(-52.19)"/><polygon class="cls-10" points="378.01 304.3 365.47 312.41 325.9 251.49 338.45 243.38 378.01 304.3"/><path class="cls-2" d="M419.12,332.27l-52.72-13.9a7.47,7.47,0,0,1-5.32-9.13h0L421,325.05Z"/><path class="cls-10" d="M424.84,310.61,421,325.05l-59.95-15.81L363,302a7.46,7.46,0,0,1,9.12-5.32Z"/><polygon class="cls-2" points="359.19 316.46 319.63 255.54 325.9 251.49 365.47 312.41 359.19 316.46"/><polygon class="cls-2" points="294 218.37 279.97 223.83 307.56 223.83 294 218.37"/><polygon class="cls-10" points="328.68 232.34 328.31 232.19 326.26 231.36 318.26 228.14 311.71 225.5 311.34 225.35 307.56 223.83 279.97 223.83 275.55 225.55 275.18 225.69 268.26 228.39 260.26 231.51 258.57 232.17 258.21 232.31 249.72 235.61 249.72 391.42 336.8 391.42 336.8 235.61 328.68 232.34"/><rect class="cls-2" x="281.45" y="207.67" width="23.62" height="15.43"/><path class="cls-10" d="M341.5,144.6c.1,29.06-20,57.23-41.39,70.76a12.19,12.19,0,0,1-13,0C265.66,202,245.37,174,245.27,144.93c-.11-32,21.39-44.12,48-44.21S341.4,112.62,341.5,144.6Z"/><path class="cls-2" d="M341.5,144.6c.1,29.06-20,57.23-41.39,70.76a12.2,12.2,0,0,1-13,0C265.66,202,245.37,174,245.27,144.92a63.11,63.11,0,0,1,.39-7.44c3.09,26.37,21.76,50.91,41.44,63.16a12.18,12.18,0,0,0,12.95,0c19.59-12.39,38.1-37,41-63.44A62.68,62.68,0,0,1,341.5,144.6Z"/><path class="cls-8" d="M282.46,87.47v14h10.93V80C287.35,80,282.46,83.35,282.46,87.47Z"/><path class="cls-11" d="M304.31,87.47c0-4.12-4.89-7.47-10.92-7.47v21.49h10.92Z"/><path class="cls-12" d="M283.14,100.08c-3,0-5.46,1.68-5.46,3.74h15.71v-3.74Z"/><path class="cls-13" d="M303.63,100.08H293.39v3.74h15.7C309.09,101.76,306.64,100.08,303.63,100.08Z"/><rect class="cls-14" x="234.26" y="129" width="118" height="46" rx="23" ry="23"/><path class="cls-15" d="M264.69,143.47c6.5,8.26,8,19.76,2.31,24.25s-16.53.29-23-8-5.32-16.3.41-20.8S258.2,135.21,264.69,143.47Z"/><circle class="cls-10" cx="246.73" cy="149.16" r="4.96"/><path class="cls-15" d="M323,143.34c-6.44,8.3-7.89,19.81-2.14,24.26s16.52.18,23-8.12,5.2-16.34-.55-20.8S329.38,135,323,143.34Z"/><circle class="cls-10" cx="340.95" cy="148.9" r="4.96"/><rect class="cls-14" x="260.26" y="250" width="66" height="66" rx="13.5" ry="13.5"/><circle class="cls-14" cx="182.26" cy="234" r="14"/><path class="cls-10" d="M186.83,228a7.55,7.55,0,0,0-10.58,1.44l12,9.14A7.55,7.55,0,0,0,186.83,228Z"/><path class="cls-2" d="M188.27,238.57l-12-9.14a7.55,7.55,0,0,0,12,9.14Z"/><circle class="cls-14" cx="404.26" cy="234" r="14"/><circle class="cls-14" cx="365.26" cy="307" r="14"/><circle class="cls-14" cx="214.26" cy="306" r="14"/><polyline class="cls-16" points="471.39 165.06 474.2 180.69 441.05 186.65 435.43 155.39 452.01 152.41"/><circle class="cls-14" cx="435.43" cy="155.39" r="5.75"/><circle class="cls-14" cx="474.05" cy="180.59" r="5.75"/><circle class="cls-14" cx="439.26" cy="189" r="14"/><polyline class="cls-16" points="114.61 166.06 111.8 181.69 144.95 187.65 150.57 156.39 133.99 153.41"/><circle class="cls-14" cx="150.57" cy="156.39" r="5.75"/><circle class="cls-14" cx="111.95" cy="181.59" r="5.75"/><circle class="cls-14" cx="146.74" cy="190" r="14"/><path class="cls-10" d="M152.32,185.5a7.56,7.56,0,0,0-10.56-1.56l9,12.12A7.56,7.56,0,0,0,152.32,185.5Z"/><path class="cls-2" d="M150.76,196.06l-9-12.12a7.55,7.55,0,1,0,9,12.12Z"/><polyline class="cls-16" points="113.7 335 124.87 346.28 148.81 322.58 126.47 300.02 114.5 311.87"/><circle class="cls-14" cx="126.47" cy="300.02" r="5.75"/><circle class="cls-14" cx="124.88" cy="346.1" r="5.75"/><circle class="cls-14" cx="151.76" cy="322.47" r="14"/><path class="cls-10" d="M151.29,315.32a7.55,7.55,0,0,0-7.35,7.74l15.09-.39A7.54,7.54,0,0,0,151.29,315.32Z"/><path class="cls-2" d="M159,322.67l-15.09.39a7.55,7.55,0,1,0,15.09-.39Z"/><polyline class="cls-16" points="466.3 335 455.13 346.28 431.19 322.58 453.53 300.02 465.5 311.87"/><circle class="cls-14" cx="453.53" cy="300.02" r="5.75"/><circle class="cls-14" cx="455.12" cy="346.1" r="5.75"/><circle class="cls-14" cx="428.24" cy="322.47" r="14"/><path class="cls-10" d="M428.71,315.32a7.55,7.55,0,0,1,7.35,7.74L421,322.67A7.54,7.54,0,0,1,428.71,315.32Z"/><path class="cls-2" d="M421,322.67l15.09.39a7.55,7.55,0,0,1-15.09-.39Z"/><path class="cls-10" d="M209.33,300.29a7.53,7.53,0,0,0-.78,10.64L220,301.07A7.53,7.53,0,0,0,209.33,300.29Z"/><path class="cls-2" d="M220,301.07l-11.42,9.86A7.54,7.54,0,0,0,220,301.07Z"/><path class="cls-10" d="M433.32,184.35a7.54,7.54,0,0,0,1.29,10.59l9.3-11.88A7.54,7.54,0,0,0,433.32,184.35Z"/><path class="cls-2" d="M443.91,183.06l-9.3,11.88a7.54,7.54,0,0,0,9.3-11.88Z"/><path class="cls-10" d="M399.65,228a7.56,7.56,0,0,0-1.37,10.59l12-9.22A7.56,7.56,0,0,0,399.65,228Z"/><path class="cls-2" d="M410.24,229.39l-12,9.22a7.55,7.55,0,0,0,12-9.22Z"/><path class="cls-10" d="M369.79,301a7.53,7.53,0,0,0-10.56,1.5l12.06,9.06A7.53,7.53,0,0,0,369.79,301Z"/><path class="cls-2" d="M371.29,311.53l-12.06-9.06a7.54,7.54,0,1,0,12.06,9.06Z"/><path class="cls-15" d="M310.41,278.94a17.77,17.77,0,0,0-2.69-6.35l1.75-2.37L305,265.79l-2.44,1.8a17.7,17.7,0,0,0-6.25-2.53l-.46-3.06h-6.26l-.47,3.11a17.89,17.89,0,0,0-6.13,2.56l-2.55-1.88-4.42,4.43,1.87,2.55a17.89,17.89,0,0,0-2.56,6.13l-3.11.47v6.26l3.06.46a17.7,17.7,0,0,0,2.53,6.25l-1.79,2.44,4.42,4.43,2.37-1.75a18,18,0,0,0,6.35,2.69l.43,2.85h6.26l.43-2.8a17.82,17.82,0,0,0,6.46-2.66l2.26,1.67,4.43-4.43-1.67-2.26a17.79,17.79,0,0,0,2.66-6.47l2.8-.42v-6.26Zm-17.53,14.23a10.55,10.55,0,1,1,10.55-10.55A10.54,10.54,0,0,1,292.88,293.17Z"/><path class="cls-2" d="M267.51,189.26l-18.23,28.07a.71.71,0,0,0,1,.95l12.82-10.54-.81,5.3a.82.82,0,0,0,1.41.69l15.38-16.65Z"/><path class="cls-2" d="M319,189.26l18.23,28.07a.71.71,0,0,1-1,.95l-12.82-10.54.81,5.3a.82.82,0,0,1-1.41.69l-15.38-16.65Z"/><g class="cls-3"><path d="M402,411.44h0A28.6,28.6,0,0,1,430.6,440V462.4A28.6,28.6,0,0,1,402,491h0a0,0,0,0,1,0,0V411.44A0,0,0,0,1,402,411.44Z"/><rect x="416.5" y="438.34" width="94.73" height="26" transform="translate(-1.52 1.57) rotate(-0.19)"/><circle cx="523.17" cy="451.18" r="36.82"/><rect x="99.14" y="403.98" width="26" height="94.73" transform="translate(-339.58 561.95) rotate(-89.81)"/><circle cx="52.83" cy="451.18" r="36.82"/><path d="M61.33,487a36.83,36.83,0,1,1-8.5-72.66,36.62,36.62,0,0,1,8.5,1,36.83,36.83,0,0,0,0,71.67Z"/><path d="M145.4,411.44h0A28.6,28.6,0,0,1,174,440V462.4A28.6,28.6,0,0,1,145.4,491h0a0,0,0,0,1,0,0V411.44A0,0,0,0,1,145.4,411.44Z" transform="translate(319.4 902.44) rotate(180)"/><path d="M154.4,440V462.4A28.56,28.56,0,0,0,174,489.54V491a28.59,28.59,0,0,1-28.6-28.6V440a28.61,28.61,0,0,1,28.6-28.6v1.46A28.6,28.6,0,0,0,154.4,440Z"/><path d="M422,462.4V440a28.56,28.56,0,0,0-19.6-27.14v-1.46A28.59,28.59,0,0,1,431,440V462.4A28.61,28.61,0,0,1,402.4,491v-1.46A28.6,28.6,0,0,0,422,462.4Z"/><circle cx="288" cy="450" r="122"/><circle cx="288" cy="450" r="98"/><path d="M242.46,395.54H228.83V391h36.36v4.54H251.55V441h-9.09Z"/><path d="M274.37,395.54h4.54V391h18.18v4.54h4.54v4.55h4.55V431.9h-4.55v4.55h-4.54V441H278.91v-4.54h-4.54V431.9h-4.55V400.09h4.55Zm9.08,0v4.55h-4.54V431.9h4.54v4.55h9.09V431.9h4.55V400.09h-4.55v-4.55Z"/><path d="M342.63,395.54h4.54v18.18h-4.54v4.55H319.9V441h-9.09V391h31.82Zm-22.73,0v18.18h18.18V395.54Z"/></g><path class="cls-17" d="M406.83,411.44h0a28.6,28.6,0,0,1,28.6,28.6V462.4a28.6,28.6,0,0,1-28.6,28.6h0a0,0,0,0,1,0,0V411.44A0,0,0,0,1,406.83,411.44Z"/><line class="cls-18" x1="516.06" y1="451.18" x2="421.33" y2="451.5"/><circle class="cls-9" cx="528" cy="451.18" r="36.82"/><line class="cls-18" x1="69.6" y1="451.18" x2="164.33" y2="451.5"/><circle class="cls-9" cx="57.66" cy="451.18" r="36.82"/><path class="cls-19" d="M66.16,487a36.83,36.83,0,1,1-8.5-72.66,36.62,36.62,0,0,1,8.5,1,36.83,36.83,0,0,0,0,71.67Z"/><path class="cls-17" d="M150.23,411.44h0a28.6,28.6,0,0,1,28.6,28.6V462.4a28.6,28.6,0,0,1-28.6,28.6h0a0,0,0,0,1,0,0V411.44A0,0,0,0,1,150.23,411.44Z" transform="translate(329.06 902.44) rotate(180)"/><path class="cls-10" d="M159.23,440V462.4a28.56,28.56,0,0,0,19.6,27.14V491a28.59,28.59,0,0,1-28.6-28.6V440a28.61,28.61,0,0,1,28.6-28.6v1.46A28.6,28.6,0,0,0,159.23,440Z"/><path class="cls-10" d="M426.83,462.4V440a28.56,28.56,0,0,0-19.6-27.14v-1.46a28.59,28.59,0,0,1,28.6,28.6V462.4a28.61,28.61,0,0,1-28.6,28.6v-1.46a28.6,28.6,0,0,0,19.6-27.14Z"/><circle class="cls-17" cx="292.83" cy="450" r="122"/><circle class="cls-14" cx="292.83" cy="450" r="98"/><path class="cls-15" d="M247.29,395.54H233.66V391H270v4.54H256.38V441h-9.09Z"/><path class="cls-15" d="M279.2,395.54h4.54V391h18.18v4.54h4.54v4.55H311V431.9h-4.55v4.55h-4.54V441H283.74v-4.54H279.2V431.9h-4.55V400.09h4.55Zm9.08,0v4.55h-4.54V431.9h4.54v4.55h9.09V431.9h4.55V400.09h-4.55v-4.55Z"/><path class="cls-15" d="M347.46,395.54H352v18.18h-4.54v4.55H324.73V441h-9.08V391h31.81Zm-22.73,0v18.18h18.18V395.54Z"/><path class="cls-19" d="M519.84,415.34a36.83,36.83,0,1,1,8.5,72.66,36.62,36.62,0,0,1-8.5-1,36.83,36.83,0,0,0,0-71.67Z"/><path class="cls-15" d="M263.44,472.09H268v4.54h-4.54Zm4.54-4.55h4.55V463h9.08v50h-9.08v-40.9H268Z"/><path class="cls-15" d="M295.3,467.54V463H318v4.54h4.54v40.91H318V513H295.3v-4.54h-4.55V467.54Zm18.17,0H299.84v18.18h4.55v-4.54h4.54v-4.55h4.54Zm-4.54,18.18v4.55h-4.54v4.54h-4.55v13.64h13.63V485.72Z"/></g></g></svg>