<?xml version="1.0" encoding="UTF-8" standalone="no"?><!DOCTYPE svg PUBLIC "-//W3C//DTD SVG 1.1//EN" "http://www.w3.org/Graphics/SVG/1.1/DTD/svg11.dtd"><svg width="100%" height="100%" viewBox="0 0 171 205" version="1.1" xmlns="http://www.w3.org/2000/svg" xmlns:xlink="http://www.w3.org/1999/xlink" xml:space="preserve" xmlns:serif="http://www.serif.com/" style="fill-rule:evenodd;clip-rule:evenodd;stroke-linejoin:round;stroke-miterlimit:2;"><g><rect x="87.1" y="0.063" width="3.12" height="204.24" style="fill:#e1c1ff;"/><path d="M87.1,204.303l-0,-3.12l83.226,-0l0,3.12l-83.226,-0Z" style="fill:#e1c1ff;"/><rect x="116.893" y="117.356" width="3.12" height="85.386" style="fill:#e1c1ff;"/><path d="M116.893,120.476l-0,-3.12l28.266,0l-0,3.12l-28.266,0Z" style="fill:#e1c1ff;"/><path d="M60.993,58.093l0,-3.12l28.267,0l-0,3.12l-28.267,0Z" style="fill:#e1c1ff;"/><rect x="142.039" y="90.65" width="3.12" height="28.266" style="fill:#e1c1ff;"/><path d="M170.305,90.65l0,3.12l-28.266,-0l-0,-3.12l28.266,-0Z" style="fill:#e1c1ff;"/><rect x="45.047" y="71.125" width="3.12" height="28.266" style="fill:#e1c1ff;"/><path d="M60.74,97.832l0,3.12l-28.266,-0l0,-3.12l28.266,-0Z" style="fill:#e1c1ff;"/><rect x="59.18" y="97.832" width="3.12" height="73.146" style="fill:#e1c1ff;"/><path d="M89.447,167.858l0,3.12l-30.267,-0l0,-3.12l30.267,-0Z" style="fill:#e1c1ff;"/><rect x="32.474" y="97.832" width="3.12" height="33.445" style="fill:#e1c1ff;"/><path d="M0.128,131.277l-0,-3.12l35.466,-0l0,3.12l-35.466,-0Z" style="fill:#e1c1ff;"/></g></svg>