<?xml version="1.0" encoding="utf-8"?>
<!-- Generator: Adobe Illustrator 24.0.1, SVG Export Plug-In . SVG Version: 6.00 Build 0)  -->
<svg version="1.1" id="Layer_1" xmlns="http://www.w3.org/2000/svg" xmlns:xlink="http://www.w3.org/1999/xlink" x="0px" y="0px"
	 viewBox="0 0 50 50" style="enable-background:new 0 0 50 50;" xml:space="preserve">
<style type="text/css">
	.st0{fill:#FFFFFF;}
</style>
<path class="st0" d="M49.3,30.2c-0.3-0.4-0.7-0.7-1.1-0.9l-2.9-13.1c-0.3-1.5-1.7-2.6-3.3-2.6h-1.7c-1.2,0-2.3,0.6-2.9,1.6l-2.8,4.5
	L35,18c0.1-0.3,0.1-0.5,0.1-0.8c0-1.9-1.5-3.4-3.4-3.4h0H20c-0.3,0-0.6,0-0.8,0.1c-0.3-0.1-0.5-0.1-0.8-0.1h0H6.6
	c-1.6,0-3,1.1-3.3,2.7l-0.2,1c-0.2,1,0,2,0.6,2.7c0.1,0.2,0.3,0.3,0.5,0.5l-1.7,8.3c-1.1,0.4-2,1.3-2.3,2.6l-0.2,1
	c-0.2,1,0.1,2,0.7,2.8c0.6,0.8,1.6,1.2,2.6,1.2h7.1c1.4,0,2.7-0.9,3.1-2.2c0.1,0.3,0.3,0.7,0.5,1c0.6,0.8,1.6,1.2,2.6,1.2h7.1
	c1.1,0,2.2-0.6,2.8-1.5c0.1,0.1,0.1,0.2,0.2,0.2c0.6,0.8,1.6,1.2,2.6,1.2h4.4c1.3,0,2.5-0.8,3.1-2c0.1,0.3,0.3,0.5,0.4,0.7
	c0.6,0.8,1.6,1.2,2.6,1.2h6.5c1.6,0,3-1.1,3.3-2.7l0.2-1C50.1,31.9,49.9,31,49.3,30.2z"/>
<g>
	<path d="M10,25.7l-0.9,4.4c-0.1,0.6-0.2,1.1-0.2,1.5c0,0.2,0.1,0.4,0.2,0.4c0.1,0.1,0.6,0.1,1.4,0.2l0.2,0l-0.2,1H3.4l0.2-1l0.2,0
		c0.8-0.1,1.2-0.2,1.4-0.3c0.2-0.2,0.3-0.8,0.6-1.8l2-9.8l0.2-1.4c0-0.4-0.5-0.7-1.4-0.7l-0.2,0l0.2-1h11.7l-0.6,3h-1.6l0-0.2
		c0.1-0.6,0.2-0.9,0.2-1.1c0-0.4-0.5-0.7-1.5-0.7h-3.4l-1.3,6.5h2.2c0.9,0,1.4,0,1.5-0.1c0.1,0,0.2-0.2,0.3-0.5
		c0-0.1,0.1-0.2,0.1-0.5l0.1-0.2h1.1L14.8,27h-1.1l0-0.2c0-0.1,0-0.3,0.1-0.4c0-0.1,0-0.2,0-0.3c0-0.2-0.5-0.3-1.6-0.3H10z"/>
	<path d="M23.4,25.7l-0.9,4.4c-0.1,0.6-0.2,1.1-0.2,1.5c0,0.2,0.1,0.4,0.2,0.4c0.1,0.1,0.6,0.1,1.4,0.2l0.2,0l-0.2,1h-7.1l0.2-1
		l0.2,0c0.8-0.1,1.2-0.2,1.4-0.3c0.2-0.2,0.3-0.8,0.6-1.8l2-9.8l0.2-1.4c0-0.4-0.5-0.7-1.4-0.7l-0.2,0l0.2-1h11.8l-0.6,3h-1.6l0-0.2
		c0.1-0.6,0.2-0.9,0.2-1.1c0-0.4-0.5-0.7-1.5-0.7h-3.4l-1.3,6.5h2.2c0.9,0,1.4,0,1.5-0.1c0.1,0,0.2-0.2,0.3-0.5
		c0-0.1,0.1-0.2,0.1-0.5l0.1-0.2h1.1L28.3,27h-1.1l0-0.2c0-0.1,0-0.3,0.1-0.4c0-0.1,0-0.2,0-0.3c0-0.2-0.5-0.3-1.6-0.3H23.4z"/>
	<path d="M34.7,28.3l-1.1,1.8c-0.6,1-1,1.6-1,1.8c0,0.3,0.4,0.4,1.2,0.4h0.2l-0.2,1h-4.4l0.2-1l0.2,0c0.6,0,0.9-0.1,1.1-0.2
		c0.1-0.1,0.3-0.3,0.6-0.8c0.1-0.1,0.3-0.5,0.7-1.2l8-13.1H42l3,13.2c0.3,1,0.5,1.6,0.6,1.8c0.1,0.2,0.4,0.3,0.9,0.3l0.2,0l-0.2,1
		H40l0.2-1h0.2c0.7,0,1.1,0,1.3-0.1c0.2-0.1,0.2-0.2,0.2-0.5c0-0.1-0.1-0.6-0.3-1.6l-0.4-1.8H34.7z M35.3,27.2H41l-1.5-6.7
		L35.3,27.2z"/>
</g>
</svg>
