<svg xmlns="http://www.w3.org/2000/svg" xmlns:xlink="http://www.w3.org/1999/xlink" width="24" height="24" preserveAspectRatio="xMidYMid meet" viewBox="0 0 24 24" style="-ms-transform: rotate(360deg); -webkit-transform: rotate(360deg); transform: rotate(360deg);"><path d="M4 4v18h16v2H4c-1.1 0-2-.9-2-2V4h2m11 3h5.5L15 1.5V7M8 0h8l6 6v12c0 1.11-.89 2-2 2H8a2 2 0 0 1-2-2V2c0-1.11.89-2 2-2m9 16v-2H8v2h9m3-4v-2H8v2h12z" fill="#626262"/><rect x="0" y="0" width="24" height="24" fill="rgba(0, 0, 0, 0)" /></svg>