<?xml version="1.0" encoding="UTF-8" standalone="no"?><!DOCTYPE svg PUBLIC "-//W3C//DTD SVG 1.1//EN" "http://www.w3.org/Graphics/SVG/1.1/DTD/svg11.dtd"><svg width="100%" height="100%" viewBox="0 0 42 57" version="1.1" xmlns="http://www.w3.org/2000/svg" xmlns:xlink="http://www.w3.org/1999/xlink" xml:space="preserve" xmlns:serif="http://www.serif.com/" style="fill-rule:evenodd;clip-rule:evenodd;stroke-linejoin:round;stroke-miterlimit:2;"><g><circle cx="21.086" cy="35.733" r="20.553" style="fill:#9a64ff;"/><path d="M7.646,51.27l-0.003,-0.058l-0,-10.097c-0,-2.787 2.262,-5.049 5.048,-5.049l17.116,0c2.786,0 5.048,2.262 5.048,5.049l0,9.87c-3.404,3.078 -7.844,5.032 -12.732,5.275l-2.074,-0c-4.733,-0.236 -9.046,-2.076 -12.403,-4.99Z" style="fill:#395b95;"/><path d="M26.728,29.455c-0,-3.023 -2.455,-5.478 -5.479,-5.478c-3.024,-0 -5.479,2.455 -5.479,5.478l0,6.449c0,3.024 2.455,5.479 5.479,5.479c3.024,0 5.479,-2.455 5.479,-5.479l-0,-6.449Z" style="fill:#facbb7;"/><path d="M31.636,7.972c0,-1.037 -0.412,-2.031 -1.145,-2.764c-0.733,-0.733 -1.727,-1.145 -2.764,-1.145c-4.452,-0 -11.684,-0 -16.136,-0c-1.037,-0 -2.031,0.412 -2.765,1.145c-0.733,0.733 -1.145,1.727 -1.145,2.764l0,16.241c0,6.546 5.307,11.853 11.853,11.853l0.249,0c6.546,0 11.853,-5.307 11.853,-11.853l0,-16.241Z" style="fill:#facbb7;"/><path d="M31.636,8.18c0,-4.433 -3.594,-8.027 -8.027,-8.027l-23.401,-0l-0,5.708c-0,4.57 3.705,8.275 8.275,8.275l23.153,0l0,-5.956Z" style="fill:#8c9cce;"/><path d="M34.223,11.049c0,-2.648 -2.146,-4.793 -4.793,-4.793l-1.914,-0l-0,10.988c-0,2.636 2.137,4.773 4.773,4.773l1.934,0l0,-10.968Z" style="fill:#8c9cce;"/><path d="M30.295,17.853c-0,-1.118 -0.909,-2.026 -2.027,-2.026l-22.009,-0c-1.119,-0 -2.027,0.908 -2.027,2.026l0,4.054c0,1.118 0.908,2.027 2.027,2.027l22.009,-0c1.118,-0 2.027,-0.909 2.027,-2.027l-0,-4.054Z" style="fill:#5a5c78;"/><path d="M24.45,20.065c-0,-1.078 -0.875,-1.953 -1.953,-1.953l-14.588,-0c-1.077,-0 -1.952,0.875 -1.952,1.953c-0,1.077 0.875,1.952 1.952,1.952l14.588,0c1.078,0 1.953,-0.875 1.953,-1.952Z" style="fill:#64ffbc;"/><clipPath id="_clip1"><path d="M24.45,20.065c-0,-1.078 -0.875,-1.953 -1.953,-1.953l-14.588,-0c-1.077,-0 -1.952,0.875 -1.952,1.953c-0,1.077 0.875,1.952 1.952,1.952l14.588,0c1.078,0 1.953,-0.875 1.953,-1.952Z"/></clipPath><g clip-path="url(#_clip1)"><path d="M24.627,17.59l-0.63,-0.597l-6.978,6.616l0.629,0.597l6.979,-6.616Zm-9.655,-0l-2.287,-2.168l-6.978,6.616l2.286,2.168l6.979,-6.616Zm3.489,-0.346l-0.912,-0.864l-6.978,6.616l0.911,0.865l6.979,-6.617Z" style="fill:#e2fff2;"/></g><path d="M21.951,15.827l-13.496,-0l0,0c0,0.293 0.117,0.575 0.324,0.782c0.208,0.207 0.489,0.324 0.782,0.324c2.536,-0 8.748,-0 11.284,-0c0.294,-0 0.575,-0.117 0.782,-0.324c0.208,-0.207 0.324,-0.489 0.324,-0.782c0,-0 0,-0 0,-0Z" style="fill:#777aa5;"/><path d="M34.223,19.88c0,-1.078 -0.875,-1.953 -1.953,-1.953l-2.801,0c-1.078,0 -1.953,0.875 -1.953,1.953c-0,1.078 0.875,1.953 1.953,1.953l2.801,-0c1.078,-0 1.953,-0.875 1.953,-1.953Z" style="fill:#5a5c78;"/><path d="M23.657,28.318c-0,-1.425 -1.157,-2.583 -2.583,-2.583l-6.141,0c-1.426,0 -2.583,1.158 -2.583,2.583c0,1.425 1.157,2.582 2.583,2.582l6.141,0c1.426,0 2.583,-1.157 2.583,-2.582Z" style="fill:#8a3e49;"/><clipPath id="_clip2"><path d="M23.657,28.318c-0,-1.425 -1.157,-2.583 -2.583,-2.583l-6.141,0c-1.426,0 -2.583,1.158 -2.583,2.583c0,1.425 1.157,2.582 2.583,2.582l6.141,0c1.426,0 2.583,-1.157 2.583,-2.582Z"/></clipPath><g clip-path="url(#_clip2)"><path d="M26.169,29.12l-7.727,0c-1.167,0 -2.113,0.947 -2.113,2.114c-0,0.765 -0,1.446 -0,1.446l9.84,-0l0,-3.56Z" style="fill:#ff6d7e;"/><path d="M13.607,26.303c-0,0.727 0.589,1.317 1.316,1.317c1.661,-0 4.5,-0 6.161,-0c0.727,-0 1.317,-0.59 1.317,-1.317c-0,-0.318 -0,-0.568 -0,-0.568l-8.794,0l-0,0.568Z" style="fill:#fff;"/></g></g></svg>