<?xml version="1.0" encoding="UTF-8" standalone="no"?><!DOCTYPE svg PUBLIC "-//W3C//DTD SVG 1.1//EN" "http://www.w3.org/Graphics/SVG/1.1/DTD/svg11.dtd"><svg width="100%" height="100%" viewBox="0 0 42 54" version="1.1" xmlns="http://www.w3.org/2000/svg" xmlns:xlink="http://www.w3.org/1999/xlink" xml:space="preserve" xmlns:serif="http://www.serif.com/" style="fill-rule:evenodd;clip-rule:evenodd;stroke-linejoin:round;stroke-miterlimit:2;"><g><circle cx="20.554" cy="32.63" r="20.553" style="fill:#9a64ff;"/><g><g><g><path d="M30.52,6.889c0,-2.948 -2.393,-5.341 -5.34,-5.341l-10.682,-0c-2.948,-0 -5.341,2.393 -5.341,5.341l0,14.55c0,2.948 2.393,5.341 5.341,5.341l10.682,0c2.947,0 5.34,-2.393 5.34,-5.341l0,-14.55Z" style="fill:#ee5940;"/><circle cx="10.587" cy="18.779" r="2.944" style="fill:#ffaea0;"/><circle cx="29.091" cy="18.779" r="2.944" style="fill:#ffaea0;"/><path d="M24.633,26.264c-0,-2.646 -2.148,-4.794 -4.794,-4.794c-2.646,0 -4.794,2.148 -4.794,4.794l-0,5.047c-0,2.646 2.148,4.794 4.794,4.794c2.646,-0 4.794,-2.148 4.794,-4.794l-0,-5.047Z" style="fill:#facbb7;"/><path d="M29.091,14.164c-0,-1.564 -0.622,-3.065 -1.728,-4.171c-1.106,-1.106 -2.607,-1.728 -4.171,-1.728l-6.706,0c-1.565,0 -3.065,0.622 -4.171,1.728c-1.107,1.106 -1.728,2.607 -1.728,4.171l-0,9.241c-0,5.11 4.142,9.252 9.251,9.252l0.001,-0c5.11,-0 9.252,-4.142 9.252,-9.252l-0,-9.241Z" style="fill:#facbb7;"/><path d="M18.891,12.05c-0,-0.603 -0.49,-1.093 -1.094,-1.093l-3.257,-0c-0.603,-0 -1.093,0.49 -1.093,1.093c-0,0.604 0.49,1.094 1.093,1.094l3.257,-0c0.604,-0 1.094,-0.49 1.094,-1.094Z" style="fill:#ee5940;"/><path d="M26.315,13.648c0,-0.603 -0.49,-1.093 -1.093,-1.093l-3.258,-0c-0.603,-0 -1.093,0.49 -1.093,1.093c0,0.604 0.49,1.094 1.093,1.094l3.258,-0c0.603,-0 1.093,-0.49 1.093,-1.094Z" style="fill:#ee5940;"/><path d="M14.454,23.386c-0,3.192 2.411,5.779 5.385,5.779c2.974,0 5.385,-2.587 5.385,-5.779l-10.77,0Z" style="fill:#b83e4c;"/><clipPath id="_clip1"><path d="M14.454,23.386c-0,3.192 2.411,5.779 5.385,5.779c2.974,0 5.385,-2.587 5.385,-5.779l-10.77,0Z"/></clipPath><g clip-path="url(#_clip1)"><path d="M21.227,27.55c0.415,-0.497 1.039,-0.814 1.736,-0.814c1.248,0 2.261,1.013 2.261,2.261c-0,1.247 -1.013,2.26 -2.261,2.26c-0.523,0 -1.005,-0.178 -1.388,-0.477c-0.415,0.497 -1.039,0.814 -1.736,0.814c-1.248,-0 -2.261,-1.013 -2.261,-2.261c0,-1.247 1.013,-2.26 2.261,-2.26c0.523,-0 1.005,0.178 1.388,0.477Z" style="fill:#ff6d7e;"/><path d="M24.296,23.068c0,-0.371 -0.301,-0.673 -0.672,-0.673l-7.57,0c-0.371,0 -0.673,0.302 -0.673,0.673l0,1.346c0,0.371 0.302,0.673 0.673,0.673l7.57,-0c0.371,-0 0.672,-0.302 0.672,-0.673l0,-1.346Z" style="fill:#fff;"/></g><path d="M21.437,22.059l-3.196,-0c-0,-0.882 0.716,-1.598 1.598,-1.598c0.882,-0 1.598,0.716 1.598,1.598Z" style="fill:#ffaea0;"/><g><g><g><circle cx="27.577" cy="5.994" r="5.888" style="fill:#ee5940;"/><circle cx="22.213" cy="6.541" r="3.322" style="fill:#ee5940;"/><circle cx="22.679" cy="3.783" r="3.322" style="fill:#ee5940;"/><circle cx="11.806" cy="8.644" r="2.649" style="fill:#ee5940;"/></g></g></g><path d="M17.346,16.508c0,-0.65 -0.528,-1.178 -1.177,-1.178c-0.65,0 -1.178,0.528 -1.178,1.178l0,1.346c0,0.649 0.528,1.177 1.178,1.177c0.649,0 1.177,-0.528 1.177,-1.177l0,-1.346Z" style="fill:#4e4857;"/><path d="M24.771,16.508c-0,-0.65 -0.528,-1.178 -1.178,-1.178c-0.65,0 -1.177,0.528 -1.177,1.178l-0,1.346c-0,0.649 0.527,1.177 1.177,1.177c0.65,0 1.178,-0.528 1.178,-1.177l-0,-1.346Z" style="fill:#4e4857;"/></g></g></g><path d="M6.836,47.926l0,-9.123c0,-5.017 4.073,-9.09 9.09,-9.09l7.641,-0c5.017,-0 9.09,4.073 9.09,9.09l0,10.43c-3.393,2.484 -7.578,3.95 -12.103,3.95c-5.27,-0 -10.08,-1.988 -13.718,-5.257Z" style="fill:#bd95ff;"/></g></svg>