<?xml version="1.0" encoding="UTF-8" standalone="no"?>
<!DOCTYPE svg PUBLIC "-//W3C//DTD SVG 1.1//EN" "http://www.w3.org/Graphics/SVG/1.1/DTD/svg11.dtd">
<svg width="100%" height="100%" viewBox="0 0 130 177" version="1.1" xmlns="http://www.w3.org/2000/svg" xmlns:xlink="http://www.w3.org/1999/xlink" xml:space="preserve" xmlns:serif="http://www.serif.com/" style="fill-rule:evenodd;clip-rule:evenodd;stroke-linejoin:round;stroke-miterlimit:2;">
    <g transform="matrix(1,0,0,1,-321,-1036)">
        <g transform="matrix(1,0,0,2.18737,0,6.74602)">
            <g transform="matrix(0.749253,0,0,0.948973,0,-1.25992e-15)">
                <g transform="matrix(0.843711,0,0,0.304541,-4972.26,192.747)">
                    <circle cx="6504.3" cy="1172.5" r="101.5" style="fill:rgb(154,100,255);"/>
                </g>
                <g transform="matrix(0.843711,0,0,0.304541,-4972.26,192.747)">
                    <path d="M6504.3,1274L6499.18,1273.87L6509.42,1273.87L6504.3,1274Z" style="fill:rgb(154,100,255);"/>
                </g>
                <g transform="matrix(0.713111,0,0,0.382622,-5971.35,185.826)">
                    <path d="M9018.02,1012.39L9018,1012.16L9018,972.468C9018,961.516 9031.22,952.624 9047.5,952.624L9147.5,952.624C9163.78,952.624 9177,961.516 9177,972.468L9177,1011.27C9157.11,1023.37 9131.17,1031.05 9102.61,1032L9090.49,1032C9062.84,1031.07 9037.63,1023.84 9018.02,1012.39Z" style="fill:rgb(57,91,149);"/>
                </g>
                <g transform="matrix(0.843331,0,0,0.304403,-7161.45,259.089)">
                    <path d="M9131,924.069C9131,909.129 9118.87,897 9103.93,897C9088.99,897 9076.86,909.129 9076.86,924.069L9076.86,955.931C9076.86,970.871 9088.99,983 9103.93,983C9118.87,983 9131,970.871 9131,955.931L9131,924.069Z" style="fill:rgb(250,203,183);"/>
                </g>
                <g transform="matrix(0.798484,0,0,0.288216,-6729.9,290.639)">
                    <path d="M9129,754.399C9129,748.989 9126.85,743.8 9123.02,739.975C9119.2,736.149 9114.01,734 9108.6,734C9085.37,734 9047.63,734 9024.4,734C9018.99,734 9013.8,736.149 9009.98,739.975C9006.15,743.8 9004,748.989 9004,754.399C9004,775.43 9004,809.275 9004,839.149C9004,873.308 9031.69,901 9065.85,901L9067.15,901C9101.31,901 9129,873.308 9129,839.149L9129,754.399Z" style="fill:rgb(250,203,183);"/>
                </g>
                <g transform="matrix(0.878868,0,0,0.30928,-7475.16,259.709)">
                    <path d="M9142,804.034C9142,782.476 9124.96,765 9103.94,765L8993,765L8993,792.757C8993,814.983 9010.57,833 9032.24,833L9142,833L9142,804.034Z" style="fill:rgb(140,156,206);"/>
                </g>
                <g transform="matrix(0.798484,0,0,0.288216,-6762.24,275.85)">
                    <path d="M9183,821.763C9183,807.95 9171.8,796.752 9157.99,796.752L9148,796.752L9148,854.092C9148,867.848 9159.15,879 9172.91,879L9183,879L9183,821.763Z" style="fill:rgb(140,156,206);"/>
                </g>
                <g transform="matrix(0.855069,0,0,0.243852,-7258.05,316.021)">
                    <path d="M9136,848.5C9136,841.601 9131.58,836 9126.12,836L9018.88,836C9013.43,836 9009,841.601 9009,848.5L9009,873.5C9009,880.399 9013.43,886 9018.88,886L9126.12,886C9131.58,886 9136,880.399 9136,873.5L9136,848.5Z" style="fill:rgb(90,92,120);"/>
                </g>
                <g transform="matrix(0.650242,0,0,0.279697,-5407.52,282.499)">
                    <path d="M9130.5,871.5C9130.5,865.705 9124.89,861 9117.99,861L9024.51,861C9017.61,861 9012,865.705 9012,871.5C9012,877.295 9017.61,882 9024.51,882L9117.99,882C9124.89,882 9130.5,877.295 9130.5,871.5Z" style="fill:rgb(100,255,188);"/>
                    <clipPath id="_clip1">
                        <path d="M9130.5,871.5C9130.5,865.705 9124.89,861 9117.99,861L9024.51,861C9017.61,861 9012,865.705 9012,871.5C9012,877.295 9017.61,882 9024.51,882L9117.99,882C9124.89,882 9130.5,877.295 9130.5,871.5Z"/>
                    </clipPath>
                    <g clip-path="url(#_clip1)">
                        <g transform="matrix(1.29508,0,0,1.03046,-2661.87,-24.0949)">
                            <path d="M9106.38,856.21L9103.26,853.094L9068.73,887.622L9071.85,890.737L9106.38,856.21ZM9058.6,856.21L9047.29,844.896L9012.76,879.424L9024.08,890.737L9058.6,856.21ZM9075.87,854.407L9071.36,849.896L9036.83,884.424L9041.34,888.935L9075.87,854.407Z" style="fill:rgb(226,255,242);"/>
                        </g>
                    </g>
                </g>
                <g transform="matrix(0.63594,0,0,0.18545,-5275.22,363.339)">
                    <path d="M9111.42,844.124L9023,844.124L9023,844.127C9023,846.505 9023.76,848.786 9025.12,850.468C9026.48,852.149 9028.32,853.094 9030.25,853.094C9046.86,853.094 9087.56,853.094 9104.18,853.094C9106.1,853.094 9107.94,852.149 9109.3,850.468C9110.66,848.786 9111.42,846.505 9111.42,844.127C9111.42,844.125 9111.42,844.124 9111.42,844.124Z" style="fill:rgb(119,122,165);"/>
                </g>
                <g transform="matrix(0.980594,0,0,0.288216,-8411.03,275.483)">
                    <path d="M9159,869.124C9159,863.5 9155.28,858.935 9150.7,858.935L9138.8,858.935C9134.22,858.935 9130.5,863.5 9130.5,869.124C9130.5,874.748 9134.22,879.314 9138.8,879.314L9150.7,879.314C9155.28,879.314 9159,874.748 9159,869.124Z" style="fill:rgb(90,92,120);"/>
                </g>
                <g transform="matrix(0.747786,0,0,0.277414,-6283.88,284.834)">
                    <path d="M9107,915C9107,907.273 9100.55,901 9092.61,901L9058.39,901C9050.45,901 9044,907.273 9044,915C9044,922.727 9050.45,929 9058.39,929L9092.61,929C9100.55,929 9107,922.727 9107,915Z" style="fill:rgb(138,62,73);"/>
                    <clipPath id="_clip2">
                        <path d="M9107,915C9107,907.273 9100.55,901 9092.61,901L9058.39,901C9050.45,901 9044,907.273 9044,915C9044,922.727 9050.45,929 9058.39,929L9092.61,929C9100.55,929 9107,922.727 9107,915Z"/>
                    </clipPath>
                    <g clip-path="url(#_clip2)">
                        <g transform="matrix(1.16667,0,0,1.13514,-1492.17,-114.757)">
                            <path d="M9097,911L9063.47,911C9056.03,911 9050,917.031 9050,924.471C9050,926.538 9050,928 9050,928L9097,928L9097,911Z" style="fill:rgb(255,109,126);"/>
                        </g>
                        <g transform="matrix(-1.16667,-1.39014e-16,1.42875e-16,-1.13514,19657.2,1930.57)">
                            <path d="M9091,906.393C9091,904.167 9090.12,902.032 9088.54,900.458C9086.97,898.884 9084.83,898 9082.61,898L9057.39,898C9055.17,898 9053.03,898.884 9051.46,900.458C9049.88,902.032 9049,904.167 9049,906.393C9049,906.774 9049,907 9049,907L9091,907L9091,906.393Z" style="fill:white;"/>
                        </g>
                    </g>
                </g>
            </g>
        </g>
    </g>
</svg>
