<?xml version="1.0" encoding="UTF-8" standalone="no"?>
<!DOCTYPE svg PUBLIC "-//W3C//DTD SVG 1.1//EN" "http://www.w3.org/Graphics/SVG/1.1/DTD/svg11.dtd">
<svg width="100%" height="100%" viewBox="0 0 129 167" version="1.1" xmlns="http://www.w3.org/2000/svg" xmlns:xlink="http://www.w3.org/1999/xlink" xml:space="preserve" xmlns:serif="http://www.serif.com/" style="fill-rule:evenodd;clip-rule:evenodd;stroke-linejoin:round;stroke-miterlimit:2;">
    <g transform="matrix(1,0,0,1,-191,-815)">
        <g transform="matrix(1,0,0,2.18737,0,6.74602)">
            <g transform="matrix(0.749253,0,0,0.948973,0.210246,-1.04767)">
                <g transform="matrix(0.843711,0,0,0.304541,-5147.48,82.6806)">
                    <circle cx="6504.3" cy="1172.5" r="101.5" style="fill:rgb(154,100,255);"/>
                </g>
                <g transform="matrix(0.791086,0,0,0.285546,-6798.68,173.236)">
                    <path d="M8952,1013.93L8952,965.879C8952,939.454 8973.45,918 8999.88,918L9040.12,918C9066.55,918 9088,939.454 9088,965.879L9088,1020.81C9070.13,1033.9 9048.08,1041.62 9024.25,1041.62C8996.49,1041.62 8971.16,1031.15 8952,1013.93Z" style="fill:rgb(189,149,255);"/>
                </g>
                <g transform="matrix(0.885993,0,0,1.13591,38.7937,50.4109)">
                    <g>
                        <g>
                            <g transform="matrix(0.744207,0,0,0.232001,-6399.28,126.212)">
                                <path d="M9119,786.48C9119,769.658 9103.88,756 9085.25,756L9017.75,756C8999.12,756 8984,769.658 8984,786.48L8984,869.52C8984,886.342 8999.12,900 9017.75,900L9085.25,900C9103.88,900 9119,886.342 9119,869.52L9119,786.48Z" style="fill:rgb(238,89,64);"/>
                            </g>
                            <g transform="matrix(0.791086,0,0,0.222721,-6821.23,131.432)">
                                <circle cx="8993.5" cy="866.5" r="17.5" style="fill:rgb(255,174,160);"/>
                            </g>
                            <g transform="matrix(0.791086,0,0,0.222721,-6734.21,131.432)">
                                <circle cx="8993.5" cy="866.5" r="17.5" style="fill:rgb(255,174,160);"/>
                            </g>
                            <g transform="matrix(0.791086,0,0,0.222721,-6824.39,123.08)">
                                <path d="M9081,948.5C9081,932.77 9068.23,920 9052.5,920C9036.77,920 9024,932.77 9024,948.5L9024,978.5C9024,994.23 9036.77,1007 9052.5,1007C9068.23,1007 9081,994.23 9081,978.5L9081,948.5Z" style="fill:rgb(250,203,183);"/>
                            </g>
                            <g transform="matrix(0.791086,0,0,0.213871,-6824.79,136.836)">
                                <path d="M9108,856.039C9108,831.717 9089.07,812 9065.71,812L9040.29,812C9016.93,812 8998,831.717 8998,856.039C8998,871.569 8998,889.263 8998,905.727C8998,937.358 9022.62,963 9053,963C9053,963 9053,963 9053,963C9083.38,963 9108,937.358 9108,905.727C9108,889.263 9108,871.569 9108,856.039Z" style="fill:rgb(250,203,183);"/>
                            </g>
                            <g transform="matrix(0.871911,0,0,0.222721,-7556.04,128.536)">
                                <path d="M9047.36,839.5C9047.36,835.913 9044.72,833 9041.47,833L9023.9,833C9020.64,833 9018,835.913 9018,839.5C9018,843.087 9020.64,846 9023.9,846L9041.47,846C9044.72,846 9047.36,843.087 9047.36,839.5Z" style="fill:rgb(238,89,64);"/>
                            </g>
                            <g transform="matrix(0.871911,0,0,0.222721,-7521.13,130.652)">
                                <path d="M9047.36,839.5C9047.36,835.913 9044.72,833 9041.47,833L9023.9,833C9020.64,833 9018,835.913 9018,839.5C9018,843.087 9020.64,846 9023.9,846L9041.47,846C9044.72,846 9047.36,843.087 9047.36,839.5Z" style="fill:rgb(238,89,64);"/>
                            </g>
                            <g transform="matrix(-1.14981,1.83531e-16,-8.2821e-16,-0.410171,10742.8,701.173)">
                                <path d="M9072.05,903.655C9072.05,893.352 9062.19,885 9050.02,885C9037.86,885 9028,893.352 9028,903.655L9072.05,903.655Z" style="fill:rgb(184,62,76);"/>
                                <clipPath id="_clip1">
                                    <path d="M9072.05,903.655C9072.05,893.352 9062.19,885 9050.02,885C9037.86,885 9028,893.352 9028,903.655L9072.05,903.655Z"/>
                                </clipPath>
                                <g clip-path="url(#_clip1)">
                                    <g transform="matrix(-0.688012,-3.07851e-16,3.91118e-16,-0.542994,15278.6,1394.06)">
                                        <path d="M9061.25,927.903C9063.72,924.948 9067.43,923.067 9071.58,923.067C9078.99,923.067 9085.01,929.088 9085.01,936.504C9085.01,943.921 9078.99,949.942 9071.58,949.942C9068.46,949.942 9065.6,948.883 9063.32,947.106C9060.86,950.061 9057.15,951.942 9053,951.942C9045.58,951.942 9039.56,945.921 9039.56,938.504C9039.56,931.088 9045.58,925.067 9053,925.067C9056.11,925.067 9058.98,926.126 9061.25,927.903Z" style="fill:rgb(255,109,126);"/>
                                    </g>
                                    <g transform="matrix(-0.63973,-2.86247e-16,4.46992e-16,-0.620565,14841.2,1466.6)">
                                        <path d="M9081,905.5C9081,903.568 9079.07,902 9076.7,902L9028.3,902C9025.93,902 9024,903.568 9024,905.5L9024,912.5C9024,914.432 9025.93,916 9028.3,916L9076.7,916C9079.07,916 9081,914.432 9081,912.5L9081,905.5Z" style="fill:white;"/>
                                    </g>
                                </g>
                            </g>
                            <g transform="matrix(0.791086,0,0,0.222721,-6815.44,133.993)">
                                <path d="M9050.68,874.5L9031.68,874.5C9031.68,869.257 9035.94,865 9041.18,865C9046.43,865 9050.68,869.257 9050.68,874.5Z" style="fill:rgb(255,174,160);"/>
                            </g>
                            <g transform="matrix(0.791086,0,0,0.791086,-426.988,131.635)">
                                <g>
                                    <g>
                                        <g transform="matrix(1.10236,0,0,0.310357,-9003.05,-27.4823)">
                                            <circle cx="9084.75" cy="804.817" r="31.75" style="fill:rgb(238,89,64);"/>
                                        </g>
                                        <g transform="matrix(0.622047,0,0,0.17513,-4671.39,82.2655)">
                                            <circle cx="9084.75" cy="804.817" r="31.75" style="fill:rgb(238,89,64);"/>
                                        </g>
                                        <g transform="matrix(0.622047,0,0,0.17513,-4668.62,77.6495)">
                                            <circle cx="9084.75" cy="804.817" r="31.75" style="fill:rgb(238,89,64);"/>
                                        </g>
                                        <g transform="matrix(0.496063,0,0,0.139661,-3588.72,114.331)">
                                            <circle cx="9084.75" cy="804.817" r="31.75" style="fill:rgb(238,89,64);"/>
                                        </g>
                                    </g>
                                </g>
                            </g>
                            <g transform="matrix(0.791086,0,0,0.222721,-6827.81,130.095)">
                                <path d="M9042,859C9042,855.137 9038.86,852 9035,852C9031.14,852 9028,855.137 9028,859L9028,867C9028,870.863 9031.14,874 9035,874C9038.86,874 9042,870.863 9042,867L9042,859Z" style="fill:rgb(78,72,87);"/>
                            </g>
                            <g transform="matrix(0.791086,0,0,0.222721,-6792.89,130.095)">
                                <path d="M9042,859C9042,855.137 9038.86,852 9035,852C9031.14,852 9028,855.137 9028,859L9028,867C9028,870.863 9031.14,874 9035,874C9038.86,874 9042,870.863 9042,867L9042,859Z" style="fill:rgb(78,72,87);"/>
                            </g>
                        </g>
                    </g>
                </g>
            </g>
        </g>
    </g>
</svg>
