<?xml version="1.0" encoding="UTF-8" standalone="no"?>
<!DOCTYPE svg PUBLIC "-//W3C//DTD SVG 1.1//EN" "http://www.w3.org/Graphics/SVG/1.1/DTD/svg11.dtd">
<svg width="100%" height="100%" viewBox="0 0 129 154" version="1.1" xmlns="http://www.w3.org/2000/svg" xmlns:xlink="http://www.w3.org/1999/xlink" xml:space="preserve" xmlns:serif="http://www.serif.com/" style="fill-rule:evenodd;clip-rule:evenodd;stroke-linejoin:round;stroke-miterlimit:2;">
    <g transform="matrix(1,0,0,1,-450,-1287)">
        <g transform="matrix(1,0,0,2.18737,0,6.74602)">
            <g transform="matrix(0.749253,0,0,0.948973,0,-1.25992e-15)">
                <g transform="matrix(0.843711,0,0,0.304541,-4800.98,302.813)">
                    <path d="M6454.27,1260.71C6451.05,1258.96 6447.98,1256.98 6445.03,1254.85L6445.03,1198.21L6427.61,1198.21L6427.61,1238.91C6412.15,1221.12 6402.8,1197.89 6402.8,1172.5C6402.8,1116.48 6448.28,1071 6504.3,1071C6560.32,1071 6605.8,1116.48 6605.8,1172.5C6605.8,1197.54 6596.72,1220.46 6581.65,1238.15L6581.65,1198.21L6564.23,1198.21L6564.23,1254.38C6561.28,1256.55 6558.21,1258.56 6554.99,1260.34L6554.99,1189.21L6454.27,1189.21L6454.27,1260.71Z" style="fill:rgb(154,100,255);"/>
                </g>
                <g transform="matrix(0.613219,0,0,0.171061,-4512.04,332.147)">
                    <rect x="8447" y="1889" width="59" height="32" style="fill:rgb(76,55,127);"/>
                </g>
                <g transform="matrix(0.841393,0,0,0.191332,-6444.18,294.745)">
                    <rect x="8407" y="1912" width="137" height="29" style="fill:rgb(100,78,155);"/>
                </g>
                <g transform="matrix(0.752042,0,0,0.460714,-5686.88,-223.26)">
                    <path d="M8532,1974.97C8525.23,1977.34 8517.97,1979.26 8510.35,1980.71L8510.35,1978.34C8510.35,1973.09 8503.13,1968.84 8494.22,1968.84C8482.18,1968.84 8465.8,1968.84 8453.76,1968.84C8444.85,1968.84 8437.63,1973.09 8437.63,1978.34L8437.63,1980.25C8431.12,1978.91 8424.87,1977.24 8419,1975.22L8419,1927.95L8532,1927.95L8532,1974.97Z" style="fill:rgb(100,78,155);"/>
                </g>
                <g transform="matrix(0.841393,0,0,0.303704,-6440.59,79.1379)">
                    <path d="M8411.47,1994.8C8405.04,1990.17 8399.17,1984.8 8394,1978.82L8394,1938L8411.47,1938L8411.47,1994.8Z" style="fill:rgb(100,78,155);"/>
                </g>
                <g transform="matrix(0.841393,0,0,0.303704,-6445.31,79.4489)">
                    <circle cx="8411.47" cy="1926.47" r="22.471" style="fill:rgb(76,55,127);"/>
                </g>
                <g transform="matrix(0.841393,0,0,0.303704,-6325.32,79.1379)">
                    <path d="M8411.47,1978.06C8406.31,1984.14 8400.45,1989.61 8394,1994.33L8394,1938L8411.47,1938L8411.47,1978.06Z" style="fill:rgb(100,78,155);"/>
                </g>
                <g transform="matrix(0.841393,0,0,0.303704,-6337.57,79.4489)">
                    <circle cx="8411.47" cy="1926.47" r="22.471" style="fill:rgb(76,55,127);"/>
                </g>
                <g transform="matrix(0.841393,0,0,0.303704,-6444.47,80.9675)">
                    <path d="M8507,1920L8442,1920C8442,1920 8442,1921.51 8442,1923.76C8442,1934.38 8450.62,1943 8461.24,1943C8469.61,1943 8479.39,1943 8487.76,1943C8498.38,1943 8507,1934.38 8507,1923.76C8507,1921.51 8507,1920 8507,1920Z" style="fill:rgb(76,55,127);"/>
                </g>
                <g transform="matrix(-0.841393,3.7193e-17,-1.03041e-16,-0.303704,7816.3,1273.91)">
                    <path d="M8507,1925.68L8507,1928.58C8507,1936.54 8500.54,1943 8492.58,1943C8481.82,1943 8467.18,1943 8456.42,1943C8448.46,1943 8442,1936.54 8442,1928.58L8442,1925C8451.91,1921.75 8462.5,1920 8473.48,1920C8485.23,1920 8496.51,1921.99 8507,1925.68Z" style="fill:rgb(76,55,127);"/>
                </g>
                <g transform="matrix(0.418895,0,0,0.143707,-2841.18,379.136)">
                    <path d="M8582.97,1723.99C8582.97,1686.46 8554.01,1656 8518.35,1656L8321.62,1656C8285.95,1656 8257,1686.46 8257,1723.99L8257,1859.96C8257,1897.49 8285.95,1927.95 8321.62,1927.95L8518.35,1927.95C8554.01,1927.95 8582.97,1897.49 8582.97,1859.96L8582.97,1723.99Z" style="fill:rgb(100,78,155);"/>
                </g>
                <g transform="matrix(0.467506,0,0,0.143707,-3300.66,379.136)">
                    <path d="M8640,1869.25C8640,1862.49 8635.33,1857 8629.57,1857L8572.43,1857C8566.67,1857 8562,1862.49 8562,1869.25L8562,1893.75C8562,1900.51 8566.67,1906 8572.43,1906L8629.57,1906C8635.33,1906 8640,1900.51 8640,1893.75L8640,1869.25Z" style="fill:rgb(135,110,196);"/>
                </g>
                <g transform="matrix(0.398132,0,0,0.143707,-2701.26,379.136)">
                    <path d="M8640,1725C8640,1704.03 8622.97,1687 8602,1687L8410.92,1687C8389.95,1687 8372.92,1704.03 8372.92,1725L8372.92,1801C8372.92,1821.97 8389.95,1839 8410.92,1839L8602,1839C8622.97,1839 8640,1821.97 8640,1801L8640,1725Z" style="fill:rgb(100,255,188);"/>
                    <clipPath id="_clip1">
                        <path d="M8640,1725C8640,1704.03 8622.97,1687 8602,1687L8410.92,1687C8389.95,1687 8372.92,1704.03 8372.92,1725L8372.92,1801C8372.92,1821.97 8389.95,1839 8410.92,1839L8602,1839C8622.97,1839 8640,1821.97 8640,1801L8640,1725Z"/>
                    </clipPath>
                    <g clip-path="url(#_clip1)">
                        <g transform="matrix(2.51173,0,0,2.51173,-8429.85,-2638.26)">
                            <path d="M6812.83,1732.53L6800.85,1720.55L6728.7,1792.7L6740.68,1804.68L6812.83,1732.53ZM6795.04,1721.02L6792.06,1718.04L6719.9,1790.2L6722.89,1793.18L6795.04,1721.02ZM6767.91,1715.2L6761.65,1708.94L6689.49,1781.09L6695.76,1787.36L6767.91,1715.2ZM6749.02,1713.29L6737.71,1701.98L6675.59,1764.09L6686.91,1775.41L6749.02,1713.29Z" style="fill:white;fill-opacity:0.4;"/>
                        </g>
                    </g>
                </g>
                <g transform="matrix(0.974693,0,0,0.351819,-5877.38,13.4815)">
                    <path d="M6713.29,1742C6720.63,1742 6726.58,1747.96 6726.58,1755.29C6726.58,1762.63 6719.63,1755.58 6712.29,1755.58C6704.96,1755.58 6700,1762.63 6700,1755.29C6700,1747.96 6705.96,1742 6713.29,1742Z" style="fill:rgb(76,55,127);"/>
                </g>
                <g transform="matrix(0.974693,0,0,0.351819,-5838.57,13.4815)">
                    <path d="M6713.29,1742C6720.63,1742 6726.58,1747.96 6726.58,1755.29C6726.58,1762.63 6719.63,1755.58 6712.29,1755.58C6704.96,1755.58 6700,1762.63 6700,1755.29C6700,1747.96 6705.96,1742 6713.29,1742Z" style="fill:rgb(76,55,127);"/>
                </g>
                <g transform="matrix(0.44016,0,0,0.158877,-3060.31,353.162)">
                    <path d="M8521,1806C8521,1806 8557.21,1804.93 8562,1786C8562,1786 8559.5,1779.5 8554.03,1778C8554.03,1778 8577.69,1774.78 8575,1800C8575,1800 8572.35,1792.93 8568,1791.98C8568,1791.98 8559.25,1811.26 8521,1806Z" style="fill:rgb(76,55,127);"/>
                </g>
                <g transform="matrix(0.398132,0,0,0.143707,-2701.26,378.705)">
                    <circle cx="8515.68" cy="1884.5" r="17.5" style="fill:rgb(135,110,196);"/>
                </g>
                <g transform="matrix(0.398132,0,0,0.143707,-2721.57,378.705)">
                    <circle cx="8515.68" cy="1884.5" r="17.5" style="fill:rgb(135,110,196);"/>
                </g>
            </g>
        </g>
    </g>
</svg>
