<?xml version="1.0" encoding="UTF-8" standalone="no"?><!DOCTYPE svg PUBLIC "-//W3C//DTD SVG 1.1//EN" "http://www.w3.org/Graphics/SVG/1.1/DTD/svg11.dtd"><svg width="100%" height="100%" viewBox="0 0 42 50" version="1.1" xmlns="http://www.w3.org/2000/svg" xmlns:xlink="http://www.w3.org/1999/xlink" xml:space="preserve" xmlns:serif="http://www.serif.com/" style="fill-rule:evenodd;clip-rule:evenodd;stroke-linejoin:round;stroke-miterlimit:2;"><g><path d="M10.541,46.38c-0.651,-0.355 -1.274,-0.756 -1.871,-1.188l-0,-11.469l-3.528,-0l-0,8.242c-3.131,-3.603 -5.023,-8.306 -5.023,-13.448c-0,-11.343 9.209,-20.553 20.553,-20.553c11.343,0 20.553,9.21 20.553,20.553c-0,5.069 -1.84,9.712 -4.89,13.294l-0,-8.088l-3.528,-0l-0,11.374c-0.597,0.439 -1.219,0.846 -1.871,1.207l-0,-14.403l-20.395,-0l-0,14.479Z" style="fill:#9a64ff;"/><rect x="16.125" y="25.455" width="8.683" height="3.64" style="fill:#4c377f;"/><rect x="6.906" y="28.972" width="27.665" height="3.689" style="fill:#644e9b;"/><path d="M30.936,46.304c-1.222,0.725 -2.532,1.312 -3.907,1.757l0,-0.724c0,-1.608 -1.303,-2.912 -2.912,-2.912l-7.302,0c-1.608,0 -2.912,1.304 -2.912,2.912l0,0.585c-1.175,-0.41 -2.302,-0.924 -3.362,-1.542l-0,-14.479l20.395,-0l-0,14.403Z" style="fill:#644e9b;"/><path d="M8.67,45.192c-1.299,-0.935 -2.484,-2.018 -3.528,-3.227l-0,-8.242l3.528,-0l-0,11.469Z" style="fill:#644e9b;"/><circle cx="7.537" cy="31.601" r="4.538" style="fill:#4c377f;"/><path d="M36.335,41.811c-1.042,1.229 -2.226,2.333 -3.528,3.286l-0,-11.374l3.528,-0l-0,8.088Z" style="fill:#644e9b;"/><circle cx="33.396" cy="31.601" r="4.538" style="fill:#4c377f;"/><path d="M27.029,31.304l-13.126,0l0,1.733c0,1.608 1.304,2.912 2.912,2.912c2.173,-0 5.129,-0 7.302,-0c1.609,-0 2.912,-1.304 2.912,-2.912l0,-1.733Z" style="fill:#4c377f;"/><path d="M13.903,47.922l0,-0.585c0,-1.608 1.304,-2.912 2.912,-2.912l7.302,0c1.609,0 2.912,1.304 2.912,2.912l0,0.724c-2.001,0.656 -4.138,1.009 -6.357,1.009c-2.372,-0 -4.651,-0.403 -6.769,-1.148Z" style="fill:#4c377f;"/><path d="M36.852,6.574c-0,-3.585 -2.911,-6.496 -6.497,-6.496l-19.778,-0c-3.585,-0 -6.496,2.911 -6.496,6.496l-0,12.993c-0,3.585 2.911,6.496 6.496,6.496l19.778,0c3.586,0 6.497,-2.911 6.497,-6.496l-0,-12.993Z" style="fill:#644e9b;"/><path d="M33.11,20.454c-0,-0.646 -0.525,-1.17 -1.171,-1.17l-6.41,-0c-0.646,-0 -1.171,0.524 -1.171,1.17l0,2.341c0,0.646 0.525,1.171 1.171,1.171l6.41,-0c0.646,-0 1.171,-0.525 1.171,-1.171l-0,-2.341Z" style="fill:#876ec4;"/><path d="M33.11,6.671c-0,-2.004 -1.627,-3.631 -3.631,-3.631l-18.258,-0c-2.004,-0 -3.631,1.627 -3.631,3.631l0,7.262c0,2.004 1.627,3.631 3.631,3.631l18.258,-0c2.004,-0 3.631,-1.627 3.631,-3.631l-0,-7.262Z" style="fill:#64ffbc;"/><clipPath id="_clip1"><path d="M33.11,6.671c-0,-2.004 -1.627,-3.631 -3.631,-3.631l-18.258,-0c-2.004,-0 -3.631,1.627 -3.631,3.631l0,7.262c0,2.004 1.627,3.631 3.631,3.631l18.258,-0c2.004,-0 3.631,-1.627 3.631,-3.631l-0,-7.262Z"/></clipPath><g clip-path="url(#_clip1)"><path d="M37.139,5.562l-2.875,-2.875l-17.317,17.317l2.875,2.875l17.317,-17.317Zm-4.271,-2.762l-0.715,-0.715l-17.317,17.317l0.715,0.715l17.317,-17.317Zm-6.511,-1.397l-1.503,-1.503l-17.317,17.317l1.503,1.503l17.317,-17.317Zm-4.533,-0.458l-2.715,-2.715l-14.907,14.907l2.715,2.715l14.907,-14.907Z" style="fill:#fff;fill-opacity:0.4;"/></g><path d="M15.693,6.219c1.716,-0 3.109,1.393 3.109,3.109c0,1.716 -1.627,0.068 -3.343,0.068c-1.716,0 -2.876,1.648 -2.876,-0.068c0,-1.716 1.394,-3.109 3.11,-3.109Z" style="fill:#4c377f;"/><path d="M25.007,6.219c1.716,-0 3.11,1.393 3.11,3.109c-0,1.716 -1.627,0.068 -3.344,0.068c-1.716,0 -2.875,1.648 -2.875,-0.068c-0,-1.716 1.393,-3.109 3.109,-3.109Z" style="fill:#4c377f;"/><path d="M21.518,15.357c0,-0 3.826,-0.113 4.332,-2.113c-0,0 -0.265,-0.687 -0.843,-0.845c0,0 2.5,-0.34 2.216,2.324c-0,0 -0.28,-0.746 -0.74,-0.848c0,0 -0.923,2.038 -4.965,1.482Z" style="fill:#4c377f;"/><circle cx="21.231" cy="21.625" r="1.672" style="fill:#876ec4;"/><circle cx="16.358" cy="21.625" r="1.672" style="fill:#876ec4;"/></g></svg>