<?xml version="1.0" encoding="UTF-8" standalone="no"?><!DOCTYPE svg PUBLIC "-//W3C//DTD SVG 1.1//EN" "http://www.w3.org/Graphics/SVG/1.1/DTD/svg11.dtd"><svg width="100%" height="100%" viewBox="0 0 21 21" version="1.1" xmlns="http://www.w3.org/2000/svg" xmlns:xlink="http://www.w3.org/1999/xlink" xml:space="preserve" xmlns:serif="http://www.serif.com/" style="fill-rule:evenodd;clip-rule:evenodd;stroke-linejoin:round;stroke-miterlimit:2;"><g><circle cx="10.014" cy="5.565" r="5.565" style="fill:#ffd113;"/><clipPath id="_clip1"><circle cx="10.014" cy="5.565" r="5.565"/></clipPath><g clip-path="url(#_clip1)"><rect x="10.014" y="-1.344" width="8.536" height="13.663" style="fill:#ffb913;"/></g><text x="7.681px" y="8.05px" style="font-family:'LucidaGrande-Bold', 'Lucida Grande', sans-serif;font-weight:600;font-size:7px;fill:#fff;">2</text><path d="M11.203,12.327c1.64,-0.285 3.07,-1.06 4.236,-2.446l4.514,7.82l-3.622,-1.384l-0.613,3.829l-4.515,-7.819Z" style="fill:#ffd113;"/><clipPath id="_clip2"><path d="M11.203,12.327c1.64,-0.285 3.07,-1.06 4.236,-2.446l4.514,7.82l-3.622,-1.384l-0.613,3.829l-4.515,-7.819Z"/></clipPath><g clip-path="url(#_clip2)"><path d="M16.331,16.317l-2.72,-4.87l-0.214,-0.919l2.464,-1.568l5.824,9.855l-5.354,-2.498Z" style="fill:#ffb913;"/></g><path d="M8.824,12.327c-1.64,-0.285 -3.069,-1.06 -4.235,-2.446l-4.515,7.82l3.623,-1.384l0.613,3.829l4.514,-7.819Z" style="fill:#ffd113;"/><clipPath id="_clip3"><path d="M8.824,12.327c-1.64,-0.285 -3.069,-1.06 -4.235,-2.446l-4.515,7.82l3.623,-1.384l0.613,3.829l4.514,-7.819Z"/></clipPath><g clip-path="url(#_clip3)"><path d="M3.697,16.317l2.719,-4.87l0.214,-0.919l-2.464,-1.568l-5.824,9.855l5.355,-2.498Z" style="fill:#ffb913;"/></g></g></svg>