<svg id="mail-bulk" xmlns="http://www.w3.org/2000/svg" viewBox="0 0 130 105">
  <defs>
    <style>
      .cls-1 {
        fill: #f0f0f0;
      }
    </style>
  </defs>
  <path id="Shape" class="cls-1" d="M117,105H13a12.852,12.852,0,0,1-9.192-3.845A13.1,13.1,0,0,1,0,91.875V36.75c1.041.788,2.209,1.7,3.56,2.754C9.037,43.777,18.2,50.928,39,65.625c.591.447,1.259.97,1.966,1.524C46.508,71.489,55.782,78.75,65,78.75s18.491-7.261,24.032-11.6c.707-.554,1.375-1.077,1.968-1.526,20.806-14.7,29.972-21.856,35.448-26.128,1.348-1.052,2.512-1.96,3.552-2.747V91.875a13.1,13.1,0,0,1-3.808,9.281A12.852,12.852,0,0,1,117,105ZM65,65.625c-4.96,0-10.671-4.58-14.84-7.925-1.307-1.048-2.435-1.953-3.359-2.575C20.073,35.585,13.023,29.958,7.358,25.436,5.034,23.582,3.028,21.98,0,19.688V13.125a13.1,13.1,0,0,1,3.808-9.28A12.852,12.852,0,0,1,13,0H117a12.852,12.852,0,0,1,9.192,3.845A13.1,13.1,0,0,1,130,13.125V21c-3.025,2.291-5.031,3.892-7.354,5.746-5.665,4.521-12.714,10.148-39.446,29.692a27.21,27.21,0,0,0-5.426,3.254C73.946,62.335,69.181,65.625,65,65.625Z"/>
</svg>
