<svg id="Bold" enable-background="new 0 0 24 24" height="512" viewBox="0 0 24 24" width="512" xmlns="http://www.w3.org/2000/svg"><g><path d="m12 0c-3.86 0-7 3.14-7 7s3.14 7 7 7 7-3.14 7-7-3.14-7-7-7zm2 7.5v1.833c0 .919-.71 1.667-1.583 1.667h-1.667c-.414 0-.75-.336-.75-.75s.336-.75.75-.75h1.667c.021 0 .083-.059.083-.167v-1.083h-1.75c-.414 0-.75-.336-.75-.75s.336-.75.75-.75h1.75v-1.083c0-.107-.062-.167-.083-.167h-1.667c-.414 0-.75-.336-.75-.75s.336-.75.75-.75h1.667c.873 0 1.583.748 1.583 1.667z"/></g><g><path d="m5.96 12.98-3.87 6.95c-.13.24-.12.54.03.77s.41.37.69.34l3.08-.23 1.36 2.77c.13.25.38.41.65.42h.02c.27 0 .53-.15.66-.38l2.52-4.48-2.45-4.33c-1.01-.43-1.92-1.06-2.69-1.83z"/></g><g><path d="m21.9 19.93-3.9-6.91c-1.27 1.27-2.94 2.13-4.8 2.39-.39.06-.79.09-1.2.09-.44 0-.87-.03-1.29-.1l1.25 2.21 3.39 6.01c.13.23.38.38.65.38h.02c.28-.01.53-.17.66-.42l1.37-2.77 3.14.24c.28.02.54-.11.69-.35.15-.23.16-.53.02-.77z"/></g></svg>