<?xml version="1.0" encoding="utf-8"?>
<!-- Generator: Adobe Illustrator 24.0.1, SVG Export Plug-In . SVG Version: 6.00 Build 0)  -->
<svg version="1.1" id="Layer_1" xmlns="http://www.w3.org/2000/svg" xmlns:xlink="http://www.w3.org/1999/xlink" x="0px" y="0px"
	 viewBox="0 0 50 50" style="enable-background:new 0 0 50 50;" xml:space="preserve">
<style type="text/css">
	.st0{fill:#FFFFFF;}
	.st1{fill:#231F20;}
</style>
<path class="st0" d="M46.5,8.8c-2.9-0.8-5.4-1.2-7.7-1.2c-2.6,0-4.9,0.5-7,1.6c-0.8-0.6-1.9-1-2.9-1H23c-2,0-3.7,1.2-4.5,3
	c-0.2-0.5-0.4-0.9-0.7-1.3c-0.9-1.1-2.3-1.7-3.7-1.7h-9c-2.3,0-4.3,1.6-4.7,3.9l-0.3,1.5c-0.3,1.4,0.1,2.8,0.9,3.9
	c0.4,0.6,1,1,1.6,1.3l4,18.7c0.5,2.2,2.4,3.8,4.7,3.8h2.3c1.7,0,3.2-0.9,4.1-2.3l4.8-8l-0.8,3.8c-0.5,2.5,1.1,5,3.6,5.6
	c1.4,0.3,2.8,0.6,3.9,0.8c1.3,0.2,2.4,0.3,3.4,0.3c4,0,7.5-1,10.2-3c3.2-2.3,4.9-5.5,4.9-9.2c0-2.1-0.6-4-1.7-5.7
	c-0.2-0.3-0.5-0.7-0.7-1c1.8-0.4,3.3-1.9,3.6-3.8l0.9-4.6C50.4,11.9,48.9,9.5,46.5,8.8z"/>
<g>
	<path class="st1" d="M11.3,36.5l-4-19L7,16.1c-0.1-0.8-0.2-1.3-0.3-1.3c-0.1-0.1-0.6-0.1-1.6-0.2l-0.3,0L5.1,13h9l-0.3,1.5h-0.3
		c-1,0-1.6,0.3-1.6,1c0,0.4,0.1,1.1,0.3,2.1L15.1,31l8.1-13.4c1-1.6,1.4-2.5,1.4-2.7c0-0.3-0.6-0.5-1.7-0.5h-0.3L23,13h5.9l-0.3,1.5
		l-0.3,0c-0.7,0.1-1.2,0.2-1.4,0.3c-0.2,0.2-0.8,1.1-1.8,2.8L13.6,36.5H11.3z"/>
	<path class="st1" d="M26.5,35.8l0.9-4.7h2.3l0,0.3c-0.1,1.1-0.2,1.8-0.2,1.8c0,0.5,0.4,1,1.3,1.4c0.8,0.4,1.8,0.6,2.9,0.6
		c1.1,0,2.1-0.5,3-1.4c0.9-0.9,1.3-2,1.3-3.2c0-1.4-1-2.9-3-4.4l-1-0.8c-2.6-2-3.9-4-3.9-5.8c0-2.1,0.8-3.8,2.5-5.1
		c1.7-1.3,3.8-2,6.3-2c1.8,0,3.9,0.3,6.4,1L44.3,18H42l0-0.3l0.3-1.9c0-0.5-0.3-1-1-1.3c-0.7-0.4-1.5-0.5-2.6-0.5
		c-1.2,0-2.2,0.4-2.9,1.2c-0.8,0.8-1.1,1.8-1.1,3c0,1.2,0.9,2.4,2.6,3.8l1.4,1.1c1.7,1.4,2.9,2.5,3.5,3.4c0.6,0.9,0.9,1.9,0.9,3
		c0,2.2-1,3.9-2.9,5.3c-1.9,1.4-4.4,2.1-7.4,2.1c-0.7,0-1.6-0.1-2.6-0.2S27.9,36.2,26.5,35.8z"/>
</g>
</svg>
