<svg xmlns="http://www.w3.org/2000/svg" xmlns:xlink="http://www.w3.org/1999/xlink" viewBox="0 0 586 586"><defs><style>.cls-1{fill:#157486;}.cls-15,.cls-18,.cls-2,.cls-30{fill:none;stroke-miterlimit:10;}.cls-2{stroke:url(#linear-gradient);}.cls-3{opacity:0.3;}.cls-4{fill:#e94919;}.cls-5{fill:#bf3426;}.cls-6{fill:#565553;}.cls-7{fill:#ee9c44;}.cls-25,.cls-8{fill:#fff;}.cls-9{fill:#511e14;}.cls-10{fill:#494b4d;}.cls-11{fill:#152230;}.cls-12{fill:#ccc;opacity:0.7;}.cls-13{fill:#41494c;}.cls-14{fill:#fefadd;}.cls-15{stroke:#152230;stroke-width:4px;stroke-dasharray:0.95 9.53;}.cls-16{fill:#a91f12;}.cls-17{fill:#2a2d26;}.cls-18{stroke:#293332;}.cls-18,.cls-23{stroke-width:3px;}.cls-19{fill:#293332;}.cls-20{fill:#414a49;}.cls-21{fill:#29abe2;}.cls-21,.cls-25{opacity:0.1;}.cls-22{fill:#fac635;}.cls-23{fill:#9e4f31;stroke:#fc0201;stroke-linejoin:round;}.cls-24{fill:#fc0001;}.cls-26{fill:#333;}.cls-27{fill:#f2b93b;}.cls-28{fill:url(#linear-gradient-2);}.cls-29{fill:#bcbbbb;}.cls-30{stroke:#565553;stroke-width:9px;stroke-dasharray:1 20;}</style><linearGradient id="linear-gradient" x1="394.88" y1="382.56" x2="185.12" y2="382.56" gradientUnits="userSpaceOnUse"><stop offset="0" stop-color="#e25039"/><stop offset="0.38" stop-color="#ffe936"/><stop offset="1" stop-color="#87c387"/></linearGradient><linearGradient id="linear-gradient-2" x1="405.54" y1="407.38" x2="203.71" y2="407.38" xlink:href="#linear-gradient"/></defs><title>VEctorРесурс 1</title><g id="Слой_2" data-name="Слой 2"><g id="Layer_1" data-name="Layer 1"><path class="cls-1" d="M586,293a291.67,291.67,0,0,1-34.63,138.3q-4.49,8.37-9.49,16.4a294.71,294.71,0,0,1-65.42,73.76q-5.32,4.29-10.87,8.33c-3.8,2.77-7.67,5.47-11.61,8.06l-.68.44q-8.07,5.26-16.48,10l-2.31,1.28q-6,3.35-12.24,6.39c-.2.11-.38.2-.58.29q-11.78,5.79-24.16,10.51a290.15,290.15,0,0,1-47.91,13.73l-1.81.36-52.1,4.85L293,586c-1.43,0-2.87,0-4.29,0a294.52,294.52,0,0,1-55.07-6c-1.81-.37-3.61-.76-5.42-1.17a291.42,291.42,0,0,1-93.44-39.19c-.92-.58-1.84-1.18-2.76-1.78q-7.32-4.83-14.35-10.08c-1.15-.86-2.28-1.72-3.41-2.6-1.59-1.22-3.17-2.45-4.72-3.71A294.71,294.71,0,0,1,44.12,447.7q-5-8-9.49-16.4A291.67,291.67,0,0,1,0,293C0,131.18,131.18,0,293,0S586,131.18,586,293Z"/><path class="cls-2" d="M394.38,398.81a104,104,0,0,1-28.5,71.68L290,396.21l-75.88,74.28a104.38,104.38,0,1,1,180.26-71.68Z"/><path class="cls-3" d="M456,105.35l1.51-4.37-4.18-1.45-19.72,56.9-1.49-.08a15.68,15.68,0,0,0-16.45,14.86l0,.45-23.06,29.71-62.2,10.93-7.33-3-.37-.15-2-.83-8-3.22-6.55-2.64-.37-.15-6.27-2.52v-8l8.63-3.61,4.69-1.95a23.68,23.68,0,0,1,2.34,7.25c1.34-.67.67-8,.67-8,1.85,1.54,2.28,4.5,2.2,7.25v.07c0,.53-.05,1-.1,1.54,0,.22,0,.43-.06.64l-.06.52a2.5,2.5,0,0,1,0,.29.64.64,0,0,1,0,.2c0,.11,0,.22,0,.33l0,.14c0,.12,0,.24-.05.35-.06.34-.12.65-.18.92,0,.1,0,.18,0,.26s-.07.32-.1.45-.05.22-.07.29,0,.11,0,.13a16.58,16.58,0,0,0,1.25-1.41,17.63,17.63,0,0,0,2.71-4.92,23,23,0,0,0,1.12-10.21l2.07-.86a18.58,18.58,0,0,0,11.37-14.88l4.61-38.42a16,16,0,0,0,.36-3l.76-6.31a52.08,52.08,0,0,0-15.74-37.28,54.13,54.13,0,0,0-4.56-4c4.77-8.71,13.33-23.43,22.94-35.71,14.68-18.76,30.18,29.36,39.15,22S381.56,43.47,362,29.6C345.62,18,325.26,50.89,312.36,72a54.19,54.19,0,0,0-19.31-5.63h0l-.24,0-1.08-.09c-.52,0-1-.07-1.56-.09-.83,0-1.66-.06-2.5-.06A54.3,54.3,0,0,0,263,72c-12.91-21.1-33.27-54-49.63-42.39-19.58,13.87-30.18,26.92-21.21,34.26s24.47-40.78,39.15-22c9.61,12.28,18.18,27,22.94,35.71a52.27,52.27,0,0,0-20.3,41.26l1,8c0,.15,0,.29.06.43l4.71,39.32A18.57,18.57,0,0,0,251,181.45l.81.35,1.24.51c-.64,6.14.91,12.36,5.1,16.55,0,0-2.68-10.05,1.34-13.39,0,0-.67,7.36.67,8a23.68,23.68,0,0,1,2.34-7.25l3.58,1.5,9.74,4.06v8.28h.42L270,202.55l-.37.14-6.92,2.7-8,3.12-1.69.66-.36.14-8.37,3.26-63-11.06L158.18,171.8l0-.59a15.67,15.67,0,0,0-16.44-14.86h0L122,99.53,117.79,101l1.31,3.77C104.21,126.35,74,102.9,59.26,124.9q7.63,22.47,15.29,44.94c14.81-22.09,45.21,1.66,60-20.42l2.48,7.17h-.37a16.48,16.48,0,0,0-15.62,17.3,15.68,15.68,0,0,0,16.45,14.86l5.35-.27,9.49,12.23.4,1.15.39-.14L169,222.12h0l60.09,10.55L202.23,274l-48,12.67a15.64,15.64,0,0,0-11.91-2l-3.71.85v-1.94h1.24v-3.08a5.63,5.63,0,0,0,2.58-4.77,5.47,5.47,0,1,0-10.94,0,5.66,5.66,0,0,0,2.58,4.77v3.08h1.24v2.21a18.48,18.48,0,0,0,1.65,36.82,17.75,17.75,0,0,0,14.09-7,15.59,15.59,0,0,0,8.6-7.13l56.72-15v0l27.79-42.79V368.42H331.2V259l22.38,34.46v0l57.49,15.17a15.53,15.53,0,0,0,5.1,5.46l.24.16-.05.05.3.11,4.38,2.87a15.7,15.7,0,0,0,3.73,1.77L412,335.1l30.19-18.91-1.72-.69a15.93,15.93,0,0,0,2.32-2.76l.44-.68a15.59,15.59,0,0,0,2.36-6.17l6.79-4.52-7.47-3a15.68,15.68,0,0,0-.88-2.07l18.74-15.87-19-7.62L431,285.9a16.5,16.5,0,0,0-13.67,1.19L367.68,274l-26.45-40.73,63.62-11.17h0L421,201.33l1.56.54,1.59-4.6,6.81-8.78,5.36.27a15.67,15.67,0,0,0,16.44-14.86,16.46,16.46,0,0,0-14.55-17.19l2.21-6.38c14.87,20.4,44.74-1.93,59.1,19.94l15.72-44.8C500.85,103.54,470.85,126.07,456,105.35Zm-116.5,9.89-.39,3.06a14.5,14.5,0,0,0-2.16-3.14,4.16,4.16,0,0,0-1.94-3.64c-.07-.41-.13-.81-.21-1.21A4.44,4.44,0,0,1,339.52,115.24Zm-11,37.66a8,8,0,0,0,4.42-6.13l.89-7c.57-.63,1.12-1.28,1.64-1.95s1-1.28,1.38-1.91l-1.54,12.14a8.52,8.52,0,0,1-8,7.35C327.74,154.61,328.15,153.76,328.55,152.9Zm-95.05,73-56.69-10,0,0,56.68,9.95Zm103.31.62-.1-.16,60-10.54.19.15Z"/><rect class="cls-4" x="159.59" y="157.57" width="14.9" height="61.84" transform="translate(-80.48 142) rotate(-37.81)"/><polygon class="cls-5" points="174.31 222.1 245.85 234.67 247.12 227.31 175.58 214.75 174.31 222.1"/><polygon class="cls-4" points="202.84 281.3 215.38 289.41 254.94 228.49 242.4 220.38 202.84 281.3"/><rect class="cls-5" x="159.75" y="294.02" width="61.99" height="7.47" transform="matrix(0.97, -0.26, 0.26, 0.97, -69.62, 58.49)"/><rect class="cls-4" x="156.89" y="279.45" width="61.99" height="14.94" transform="translate(-66.96 57.4) rotate(-14.77)"/><polygon class="cls-5" points="221.66 293.46 261.22 232.54 254.94 228.49 215.38 289.41 221.66 293.46"/><polygon class="cls-4" points="178.04 200.01 175.42 215.13 249.74 228.18 252.36 213.06 178.04 200.01"/><rect class="cls-5" x="154.52" y="164.35" width="7.47" height="61.99" transform="translate(-86.53 138.05) rotate(-37.81)"/><rect class="cls-4" x="386.42" y="181.01" width="61.99" height="14.94" transform="translate(12.6 402.68) rotate(-52.19)"/><polygon class="cls-5" points="410.21 222.1 338.67 234.67 337.4 227.31 408.94 214.75 410.21 222.1"/><polygon class="cls-4" points="405.71 200.01 408.34 215.17 335.16 228.03 332.53 212.87 405.71 200.01"/><rect class="cls-5" x="395.27" y="191.61" width="61.99" height="7.47" transform="translate(10.6 412.33) rotate(-52.19)"/><polygon class="cls-4" points="377.75 281.3 365.21 289.41 325.64 228.49 338.19 220.38 377.75 281.3"/><rect class="cls-5" x="386.11" y="266.76" width="7.47" height="61.99" transform="translate(2.52 598.78) rotate(-75.23)"/><rect class="cls-4" x="385.23" y="255.93" width="14.94" height="61.99" transform="matrix(0.26, -0.97, 0.97, 0.26, 15.12, 593.47)"/><polygon class="cls-5" points="358.93 293.46 319.37 232.54 325.64 228.49 365.21 289.41 358.93 293.46"/><polygon class="cls-4" points="336.54 212.61 336.54 368.42 249.46 368.42 249.46 212.61 257.95 209.31 258.31 209.17 260 208.51 268 205.39 274.92 202.69 275.29 202.55 293.74 195.37 311.08 202.35 311.45 202.5 318 205.14 326 208.36 328.05 209.19 328.42 209.34 336.54 212.61"/><rect class="cls-5" x="281.19" y="184.67" width="23.62" height="15.43"/><path class="cls-6" d="M146.29,284.89h5A15.68,15.68,0,0,1,167,300.56v.8A15.68,15.68,0,0,1,151.31,317h-5.82a15.68,15.68,0,0,1-15.68-15.68v0a16.48,16.48,0,0,1,16.48-16.48Z" transform="translate(-63.89 41.09) rotate(-13)"/><path class="cls-6" d="M430.63,286.15h5a15.68,15.68,0,0,1,15.68,15.68v.8a15.68,15.68,0,0,1-15.68,15.68h-5.82a15.68,15.68,0,0,1-15.68-15.68v0a16.48,16.48,0,0,1,16.48-16.48Z" transform="translate(235.97 -187.55) rotate(33.18)"/><polygon class="cls-7" points="468.06 280.43 449.11 272.81 426.11 296.31 436.32 300.41 421.7 314.3 430.94 318.01 417.29 335.1 447.48 316.19 439.94 313.16 457.67 301.37 447.95 297.46 468.06 280.43"/><path class="cls-6" d="M436.66,156.48h5.82a15.68,15.68,0,0,1,15.68,15.68v.8a15.68,15.68,0,0,1-15.68,15.68h-5A16.48,16.48,0,0,1,421,172.15v0a15.68,15.68,0,0,1,15.68-15.68Z" transform="translate(869.86 367.1) rotate(-177.1)"/><path d="M479.82,115.32c-2.07,6-3.11,9-5.17,14.94-8.73-.74-13-1.45-18.88-10.32,2.07-6,3.11-9,5.17-14.94C466.85,113.87,471.09,114.58,479.82,115.32Z"/><path class="cls-8" d="M502.21,115.48l-5.17,15c-8.72-.75-13.67.58-22.39-.17,2.06-6,3.1-9,5.17-14.94C488.54,116.06,493.49,114.74,502.21,115.48Z"/><path d="M521.08,125.81c-2.07,6-3.1,9-5.17,14.94-5.91-8.87-10.15-9.58-18.87-10.32l5.17-15C510.93,116.23,515.17,116.94,521.08,125.81Z"/><path class="cls-8" d="M515.91,140.75l-5.17,14.95c-5.91-8.87-10.15-9.58-18.87-10.33L497,130.43C505.76,131.17,510,131.88,515.91,140.75Z"/><path d="M510.74,155.7c-2.07,6-3.1,9-5.17,14.94-5.91-8.87-10.15-9.58-18.87-10.32l5.17-14.95C500.59,146.12,504.83,146.83,510.74,155.7Z"/><path class="cls-8" d="M491.87,145.37l-5.17,14.95c-8.73-.75-13.67.58-22.4-.17,2.07-6,3.1-9,5.17-14.94C478.2,146,483.14,144.63,491.87,145.37Z"/><path class="cls-8" d="M474.65,130.26l-5.18,15c-8.72-.74-13-1.45-18.87-10.32l5.17-14.95C461.68,128.81,465.92,129.52,474.65,130.26Z"/><path d="M469.47,145.21c-2.07,6-3.1,9-5.17,14.94-8.72-.74-13-1.45-18.87-10.32,2.07-6,3.1-9,5.17-14.94C456.51,143.76,460.75,144.47,469.47,145.21Z"/><path d="M497,130.43l-5.17,14.94c-8.73-.74-13.67.58-22.4-.16l5.18-15C483.37,131,488.32,129.68,497,130.43Z"/><rect class="cls-9" x="441.08" y="97.31" width="4.43" height="106.77" transform="translate(73.65 -136.68) rotate(19.09)"/><path class="cls-6" d="M341.22,121.76c0,29.06-20.21,57.16-41.64,70.62a12.18,12.18,0,0,1-13,0C265.18,178.92,245,150.82,245,121.76c0-32,21.54-44,48.12-44S341.22,89.78,341.22,121.76Z"/><path class="cls-10" d="M341.21,121.76c0,29.06-20.2,57.17-41.63,70.62a12.18,12.18,0,0,1-13,0C265.18,178.93,245,150.82,245,121.76a62.93,62.93,0,0,1,.42-7.44c3,26.38,21.59,51,41.22,63.3a12.18,12.18,0,0,0,13,0c19.63-12.32,38.22-36.92,41.21-63.3A62.93,62.93,0,0,1,341.21,121.76Z"/><path class="cls-6" d="M275,82.61c-11.42-17.12-36.7-66.87-56.27-53S188.5,56.52,197.47,63.86s24.47-40.78,39.15-22,26.91,43.22,26.91,43.22Z"/><path class="cls-10" d="M267.54,165.37c-10.05,7.37-12.73,24.78-4,33.49,0,0-2.68-10.05,1.34-13.39,0,0-.67,7.36.67,8,0,0,1.28-10.64,9-13.69l7.73-3.05Z"/><path class="cls-10" d="M326.45,192.52a17.89,17.89,0,0,1-2.71,4.92,18.52,18.52,0,0,1-1.25,1.41.66.66,0,0,1,0-.13c0-.07,0-.17.07-.29s.06-.28.1-.45,0-.16.05-.26c.05-.27.12-.58.18-.92,0-.11,0-.23.05-.35a.78.78,0,0,0,0-.14c0-.11,0-.22.05-.33a.64.64,0,0,0,0-.2c0-.09,0-.19.05-.29s0-.34.06-.52.05-.42.06-.64c.05-.5.08-1,.1-1.54v-.07c.08-2.75-.35-5.71-2.2-7.25,0,0,.67,7.36-.67,8,0,0-1.24-10.29-8.62-13.54l-.4-.17c-2.7-1.06-4.46-1.75-5.6-2.21A76.25,76.25,0,0,0,317.4,167c.44-.49.87-1,1.3-1.48l.31.23a18.16,18.16,0,0,1,1.54,1.37c.24.23.47.46.69.7C327.17,174.22,329.35,184.53,326.45,192.52Z"/><path class="cls-6" d="M311.05,82.61c11.42-17.12,36.7-66.87,56.27-53s30.18,26.92,21.21,34.26-24.47-40.78-39.15-22-26.91,43.22-26.91,43.22Z"/><path class="cls-11" d="M269.81,118.68c7.65,9.81,9.42,23.42,2.63,28.71s-19.56.28-27.21-9.52-6.22-19.32.57-24.61S262.16,108.88,269.81,118.68Z"/><circle class="cls-12" cx="248.53" cy="125.34" r="5.87"/><path class="cls-11" d="M316.26,118.68c-7.65,9.81-9.41,23.42-2.63,28.71s19.56.28,27.21-9.52,6.22-19.32-.56-24.61S323.91,108.88,316.26,118.68Z"/><circle class="cls-12" cx="337.54" cy="125.34" r="5.87"/><ellipse class="cls-6" cx="434.86" cy="172.74" rx="5.17" ry="7.75" transform="translate(240.37 598.31) rotate(-87.1)"/><path class="cls-6" d="M142.84,156.48h5a15.68,15.68,0,0,1,15.68,15.68v.8a15.68,15.68,0,0,1-15.68,15.68H142A15.68,15.68,0,0,1,126.36,173v0a16.48,16.48,0,0,1,16.48-16.48Z" transform="translate(-8.53 7.54) rotate(-2.9)"/><path d="M106.18,115.32l5.17,14.94c8.73-.74,13-1.45,18.88-10.32-2.07-6-3.11-9-5.17-14.94C119.15,113.87,114.91,114.58,106.18,115.32Z"/><path class="cls-8" d="M83.79,115.48l5.17,15c8.72-.75,13.67.58,22.39-.17l-5.17-14.94C97.46,116.06,92.51,114.74,83.79,115.48Z"/><path d="M64.92,125.81l5.17,14.94C76,131.88,80.24,131.17,89,130.43l-5.17-15C75.07,116.23,70.83,116.94,64.92,125.81Z"/><path class="cls-8" d="M70.09,140.75l5.17,14.95c5.91-8.87,10.15-9.58,18.87-10.33L89,130.43C80.24,131.17,76,131.88,70.09,140.75Z"/><path d="M75.26,155.7c2.07,6,3.1,9,5.17,14.94,5.91-8.87,10.15-9.58,18.87-10.32l-5.17-14.95C85.41,146.12,81.17,146.83,75.26,155.7Z"/><path class="cls-8" d="M94.13,145.37l5.17,14.95c8.73-.75,13.67.58,22.4-.17l-5.17-14.94C107.8,146,102.86,144.63,94.13,145.37Z"/><path class="cls-8" d="M111.35,130.26l5.18,15c8.72-.74,13-1.45,18.87-10.32l-5.17-14.95C124.32,128.81,120.08,129.52,111.35,130.26Z"/><path d="M116.53,145.21l5.17,14.94c8.72-.74,13-1.45,18.87-10.32l-5.17-14.94C129.49,143.76,125.25,144.47,116.53,145.21Z"/><path d="M89,130.43l5.17,14.94c8.73-.74,13.67.58,22.4-.16l-5.18-15C102.63,131,97.68,129.68,89,130.43Z"/><rect class="cls-9" x="140.49" y="97.31" width="4.43" height="106.77" transform="translate(326.84 246.45) rotate(160.91)"/><ellipse class="cls-6" cx="149.66" cy="172.74" rx="7.75" ry="5.17" transform="translate(-8.54 7.78) rotate(-2.9)"/><ellipse class="cls-6" cx="431.1" cy="299.42" rx="5.17" ry="7.75" transform="translate(-92.77 331.98) rotate(-38.34)"/><ellipse class="cls-13" cx="142.26" cy="304.14" rx="17.95" ry="18.45"/><ellipse class="cls-14" cx="142.26" cy="304.14" rx="14.54" ry="14.95"/><ellipse class="cls-15" cx="142.26" cy="304.14" rx="9.87" ry="10.15"/><path class="cls-16" d="M154.51,304a12.41,12.41,0,0,0-12.16-12.57V304l8.61,8.86A12.7,12.7,0,0,0,154.51,304Z"/><ellipse class="cls-17" cx="142.26" cy="304.14" rx="1.75" ry="1.8"/><ellipse class="cls-18" cx="142.26" cy="275.71" rx="5.47" ry="5.62"/><rect class="cls-19" x="140.61" y="282.08" width="3.3" height="4.67"/><rect class="cls-20" x="139.37" y="277.62" width="5.78" height="5.94"/><ellipse class="cls-6" cx="152.88" cy="300.16" rx="7.75" ry="5.17" transform="translate(-63.59 42.08) rotate(-13)"/><rect class="cls-5" x="291" y="196.09" width="4" height="150"/><path class="cls-21" d="M342.28,115.54l-4,31.23a8.05,8.05,0,0,1-5.87,6.71,8.71,8.71,0,0,1-2.24.3H302.51l-4.62-5.29a6.89,6.89,0,0,0-10.09-.27l-5.43,5.56H255.8a8.11,8.11,0,0,1-8.11-7l-4-31.2a4.22,4.22,0,0,1,4.77-4.66l19.09,2.4a21.82,21.82,0,0,0,2.8.18h45.54l21.61-2.62A4.23,4.23,0,0,1,342.28,115.54Z"/><path class="cls-22" d="M331,81.53a54,54,0,0,0-32.61-15.17h0l-.23,0-1.09-.09c-.51,0-1-.07-1.55-.09-.83,0-1.66-.06-2.5-.06-29.68,0-53.74,23.6-53.74,52.72L245,166.57a18.57,18.57,0,0,0,11.38,14.88l.81.35,14.27,5.95,13.49,5.62a21,21,0,0,0,16.12,0l12.38-5.17,16.19-6.75A18.57,18.57,0,0,0,341,166.57l5.73-47.76A52.08,52.08,0,0,0,331,81.53Zm9.67,66.57a8.53,8.53,0,0,1-8.52,7.38H303l-4.87-5.57a7.26,7.26,0,0,0-10.61-.29l-5.71,5.86h-28l-.56,0a8.49,8.49,0,0,1-8-7.35l-4.19-32.83a4.45,4.45,0,0,1,5-4.91l4.89.62,15.19,1.91a22.37,22.37,0,0,0,2.95.19h47.91l22.75-2.75a4.45,4.45,0,0,1,5,4.91Z"/><path class="cls-7" d="M241.14,115.27l4.19,32.83a8.49,8.49,0,0,0,8,7.35l2.21,20.08a21.51,21.51,0,0,0,1.68,6.27l-.81-.35A18.57,18.57,0,0,1,245,166.57l-5.73-47.76c0-29.12,24.06-52.72,53.74-52.72.84,0,1.67,0,2.5.06.53,0,1,.06,1.55.09l1.09.09.23,0C275,68.72,256.05,87,251.06,111l-4.89-.62A4.45,4.45,0,0,0,241.14,115.27Z"/><polygon class="cls-23" points="272.58 79.97 256.57 92.9 281.06 98.53 272.58 79.97"/><polygon class="cls-23" points="313.42 79.97 329.43 92.9 304.94 98.53 313.42 79.97"/><path class="cls-22" d="M313.44,188.2l-12.38,5.17a21,21,0,0,1-16.12,0l-13.49-5.62c1.66-15.82,13.12-28.72,18.36-33.88a3.74,3.74,0,0,1,5.21,0C300.31,159.07,312,172.18,313.44,188.2Z"/><path class="cls-24" d="M338.05,110.84a4.22,4.22,0,0,1,4.23,4.7l-4,31.23a8.05,8.05,0,0,1-5.87,6.71,8.71,8.71,0,0,1-2.24.3H302.51l-4.62-5.29a6.9,6.9,0,0,0-10.09-.27l-5.43,5.56H255.8a8.11,8.11,0,0,1-8.11-7l-4-31.2a4.21,4.21,0,0,1,4.22-4.7,3.48,3.48,0,0,1,.55,0l19.09,2.4a21.82,21.82,0,0,0,2.8.18h45.54l21.61-2.62.52,0m0-3a8.46,8.46,0,0,0-.87,0l-21.45,2.6H270.38a18.94,18.94,0,0,1-2.42-.15l-19.09-2.41a7.38,7.38,0,0,0-.93-.06,7.28,7.28,0,0,0-5.47,2.47,7.11,7.11,0,0,0-1.73,5.61l4,31.2a11.14,11.14,0,0,0,11.09,9.63h26.57a3,3,0,0,0,2.15-.9l5.43-5.57a3.91,3.91,0,0,1,5.68.15l4.63,5.3a3,3,0,0,0,2.25,1H330.2a11.53,11.53,0,0,0,3-.41,11,11,0,0,0,8.06-9.23l4-31.22a7.12,7.12,0,0,0-1.73-5.61,7.3,7.3,0,0,0-5.48-2.47Z"/><polygon class="cls-25" points="316.45 153.78 304.01 153.78 283.38 113.49 295.81 113.49 316.45 153.78"/><path class="cls-25" d="M332.44,153.48a8.71,8.71,0,0,1-2.24.3h-7.55L302,113.49H312Z"/><path class="cls-26" d="M292.51,199.86l-2.31,7.57a.51.51,0,0,0,.5.66h4.6a.51.51,0,0,0,.5-.66l-2.31-7.57A.51.51,0,0,0,292.51,199.86Z"/><polygon class="cls-27" points="150.72 493.36 45.75 493.36 73.54 456.31 45.75 419.26 150.72 419.26 150.72 493.36"/><polygon class="cls-27" points="435.28 493.36 540.25 493.36 512.46 456.31 540.25 419.26 435.28 419.26 435.28 493.36"/><rect class="cls-22" x="91.04" y="386.84" width="403.91" height="74.1"/><polygon class="cls-7" points="91.04 460.88 150.85 493.42 150.72 460.88 91.04 460.88"/><polygon class="cls-7" points="494.96 460.88 435.15 493.42 435.28 460.88 494.96 460.88"/><circle class="cls-6" cx="293" cy="425.81" r="133"/><path class="cls-28" d="M410.65,425.81a117.22,117.22,0,0,1-32.12,80.79L293,422.88,207.47,506.6a117.65,117.65,0,1,1,203.18-80.79Z"/><circle class="cls-29" cx="293" cy="425.81" r="94.27"/><circle class="cls-30" cx="293" cy="425.81" r="102.57"/><path class="cls-26" d="M227.12,388.84V378.3h34.26v10.54H250.11v35.57H238.45V388.84ZM244.65,420c0-12.12-.07-24.1-.14-36.16H256.9v-.59H231.54v.59H244V420Z"/><path class="cls-26" d="M265.85,401.42c0-31.88,47.3-31.88,47.3,0S265.85,433.37,265.85,401.42Zm41.57,0c0-24.77-35.77-24.7-35.77,0S307.42,426.19,307.42,401.42Zm-35.11,0c0,24.11,34.45,23.65,34.45,0S272.31,377.38,272.31,401.42Zm28.78,0c0,16.73-23.12,16.73-23.12,0S301.09,384.82,301.09,401.42Z"/><path class="cls-26" d="M322,424.41V378.3h20.29c22.06.06,22.06,34.32,0,34.32h-8.5v11.79Zm20.35-41.11H327.5V420h.73V407.68h14.16C357,407.54,357.08,383.3,342.39,383.3Zm0,.6c13.64,0,13.84,23,0,23H328.23v-23Zm-.13,4.94c-2.77-.07-5.73,0-8.43,0V402h8.43C348.72,402,349.11,388.9,342.26,388.84Z"/><path class="cls-26" d="M261.15,446.24V436.3h17.72v36.1h7.31v10h-26v-10h7.25V446.24Zm12.25-5.46h-7.9v.52h7.31v36.1h-8.23v.53h17.19v-.53H273.4Z"/><path class="cls-26" d="M325.84,451.32v16.13c0,10.08-7.78,15.88-17.33,15.88-9.35,0-17.19-5.8-17.19-15.88V451.32c0-10.08,7.84-15.88,17.19-15.88C318.06,435.44,325.84,441.24,325.84,451.32Zm-5.21,15.87V451.51c0-7.11-5.46-11.13-12.12-11.13-6.45,0-12,4-12,11.13v15.68c0,7.05,5.54,11.2,12,11.2C315.17,478.39,320.63,474.24,320.63,467.19Zm-.79-15.68v15.68c0,6.72-5,10.61-11.33,10.61-6.12,0-11.26-3.89-11.26-10.61V451.51c0-6.78,5.14-10.54,11.26-10.54C314.84,441,319.84,444.73,319.84,451.51Zm-5.14,15.68V451.51c0-3.62-2.7-5.53-6.19-5.53s-6,1.91-6,5.53v15.68c0,3.76,2.63,5.67,6,5.67S314.7,471,314.7,467.19Z"/></g></g></svg>