<svg xmlns="http://www.w3.org/2000/svg" width="767" height="309" viewBox="0 0 767 309">
  <path d="M726.88052,225.656757 C732.926623,225.656757 738.434726,226.786486 743.404827,229.045946 C748.374929,231.305405 752.602077,234.309459 756.086272,238.058108 C759.570467,241.806757 762.26047,246.171622 764.156282,251.152703 C766.052094,256.133784 767,261.294595 767,266.635135 C767,267.764865 766.974381,268.791892 766.923143,269.716216 C766.871905,270.640541 766.795047,271.359459 766.692571,271.872973 L766.692571,271.872973 L700.134201,271.872973 L700.191132,272.537212 C700.546004,276.282374 701.449313,279.706907 702.901061,282.810811 C704.438206,286.097297 706.436494,288.921622 708.895926,291.283784 C711.355358,293.645946 714.147837,295.494595 717.273365,296.82973 C720.398893,298.164865 723.703754,298.832432 727.187949,298.832432 C729.647381,298.832432 732.055575,298.498649 734.41253,297.831081 C736.769485,297.163514 738.972726,296.264865 741.022253,295.135135 C743.071779,294.005405 744.890734,292.618919 746.479117,290.975676 C748.0675,289.332432 749.271596,287.483784 750.091407,285.42973 L750.091407,285.42973 L761.773708,288.664865 L761.500779,289.257117 C760.196825,292.004985 758.468846,294.529189 756.316844,296.82973 C754.011126,299.294595 751.346742,301.425676 748.323691,303.222973 C745.300639,305.02027 741.94454,306.432432 738.255392,307.459459 C734.566244,308.486486 730.723382,309 726.726806,309 C720.680703,309 715.146982,307.895946 710.125642,305.687838 C705.104302,303.47973 700.800297,300.475676 697.213625,296.675676 C693.626954,292.875676 690.834474,288.433784 688.836186,283.35 C686.837898,278.266216 685.838754,272.9 685.838754,267.251351 C685.838754,261.602703 686.837898,256.262162 688.836186,251.22973 C690.834474,246.197297 693.652573,241.781081 697.290483,237.981081 C700.928392,234.181081 705.258017,231.177027 710.279356,228.968919 C715.300696,226.760811 720.834417,225.656757 726.88052,225.656757 Z M425.292708,200.237838 L425.292708,227.043243 L443.277302,227.043243 L443.277302,237.672973 L425.292708,237.672973 L425.292708,287.586486 L425.32233,287.954505 C425.580122,290.743168 426.543773,292.777252 428.213283,294.056757 C429.955381,295.391892 432.004907,296.059459 434.361862,296.059459 C437.026247,296.059459 439.460059,295.622973 441.6633,294.75 C443.866541,293.877027 445.378067,293.183784 446.197877,292.67027 L446.197877,292.67027 L449.425882,303.454054 L449.172253,303.579608 C448.388309,303.963203 447.39685,304.409189 446.197877,304.917568 C444.865685,305.482432 443.35416,306.047297 441.6633,306.612162 C439.972441,307.177027 438.127867,307.639189 436.129579,307.998649 C434.131291,308.358108 432.056145,308.537838 429.904142,308.537838 C424.985279,308.537838 420.732512,307.177027 417.14584,304.455405 C413.559169,301.733784 411.765834,297.497297 411.765834,291.745946 L411.765834,291.745946 L411.765834,237.672973 L400.852105,237.672973 L400.852105,227.043243 L411.765834,227.043243 L411.765834,200.237838 L425.292708,200.237838 Z M363.653201,225.656757 C368.264635,225.656757 372.107497,226.504054 375.181787,228.198649 C378.256077,229.893243 380.715508,232.255405 382.560082,235.285135 C384.404656,238.314865 385.711229,241.883784 386.479801,245.991892 C387.248374,250.1 387.63266,254.567568 387.63266,259.394595 L387.63266,259.394595 L387.63266,307.459459 L374.105786,307.459459 L374.105786,262.475676 L374.103666,261.877623 C374.044308,253.558537 372.738442,247.493023 370.186066,243.681081 C367.57292,239.778378 363.601963,237.827027 358.273194,237.827027 C355.506333,237.827027 352.739473,238.366216 349.972612,239.444595 C347.205751,240.522973 344.592605,241.986486 342.133174,243.835135 C339.673742,245.683784 337.521739,247.891892 335.677165,250.459459 C333.832592,253.027027 332.449161,255.851351 331.526874,258.932432 L331.526874,258.932432 L331.526874,307.459459 L318,307.459459 L318,227.043243 L330.297159,227.043243 L330.297159,244.297297 L330.599108,243.771046 C333.761914,238.367319 338.247079,234.023818 344.054605,230.740541 C350.049469,227.351351 356.582335,225.656757 363.653201,225.656757 Z M478.016775,198.081081 L478.016775,245.375676 L538.119137,245.375676 L538.119137,198.081081 L551.953441,198.081081 L551.953441,307.459459 L538.119137,307.459459 L538.119137,257.7 L478.016775,257.7 L478.016775,307.459459 L464.182472,307.459459 L464.182472,198.081081 L478.016775,198.081081 Z M589.459774,227.043243 L589.459774,307.459459 L575.9329,307.459459 L575.9329,227.043243 L589.459774,227.043243 Z M616.820952,227.043243 L642.183841,295.597297 L667.700445,227.043243 L680.612461,227.043243 L648.947278,307.459459 L634.498117,307.459459 L602.832934,227.043243 L616.820952,227.043243 Z M260.914695,214.830158 L307,307 L0,307 L27.6092775,251.781445 L260.914695,214.830158 Z M253.952702,228.365787 L35.7678025,262.922475 L19.86904,294.72 L287.130192,294.72 L253.952702,228.365787 Z M726.88052,235.824324 C723.293849,235.824324 719.912131,236.466216 716.735365,237.75 C713.558599,239.033784 710.766119,240.831081 708.357925,243.141892 C705.949732,245.452703 704.002682,248.2 702.516775,251.383784 C701.030868,254.567568 700.134201,258.059459 699.826772,261.859459 L699.826772,261.859459 L754.241698,261.859459 C753.934269,258.059459 752.986363,254.541892 751.39798,251.306757 C749.809597,248.071622 747.811309,245.324324 745.403115,243.064865 C742.994922,240.805405 740.202442,239.033784 737.025676,237.75 C733.84891,236.466216 730.467192,235.824324 726.88052,235.824324 Z M589.459774,195 L589.459774,211.945946 L575.9329,211.945946 L575.9329,195 L589.459774,195 Z M153.5,0 L252.554317,198.108635 L70.30607,166.388627 L153.5,0 Z M153.5,27.45808 L88.669275,157.11953 L230.689777,181.837635 L153.5,27.45808 Z"/>
</svg>
