<?xml version="1.0" standalone="no"?>
<!DOCTYPE svg PUBLIC "-//W3C//DTD SVG 20010904//EN"
 "http://www.w3.org/TR/2001/REC-SVG-20010904/DTD/svg10.dtd">
<svg version="1.0" xmlns="http://www.w3.org/2000/svg"
 width="307.000000pt" height="307.000000pt" viewBox="0 0 307.000000 307.000000"
 preserveAspectRatio="xMidYMid meet">
<metadata>
Created by potrace 1.11, written by Peter Selinger 2001-2013
</metadata>
<g transform="translate(0.000000,307.000000) scale(0.100000,-0.100000)"
fill="#000000" stroke="none">
<path d="M1122 2245 c-226 -454 -412 -829 -412 -833 0 -5 33 -14 73 -20 39 -6
83 -14 97 -16 37 -7 380 -66 415 -72 17 -2 53 -9 80 -14 28 -6 64 -12 80 -15
27 -3 170 -28 235 -40 14 -3 63 -12 110 -20 108 -18 656 -113 693 -119 15 -3
27 -2 26 2 0 4 -221 449 -492 990 l-492 982 -413 -825z m797 -217 c210 -420
381 -766 381 -769 0 -4 -30 -1 -67 6 -38 7 -86 15 -108 19 -22 3 -51 8 -65 10
-38 8 -877 155 -980 172 -129 22 -181 32 -185 36 -5 5 633 1288 640 1288 2 0
175 -343 384 -762z"/>
<path d="M2569 916 c-2 -2 -24 -6 -49 -9 -25 -4 -72 -11 -105 -16 -85 -14
-117 -19 -230 -36 -55 -9 -125 -20 -155 -25 -44 -8 -243 -40 -415 -66 -16 -3
-55 -9 -85 -14 -30 -5 -73 -12 -95 -15 -40 -6 -51 -7 -155 -25 -30 -5 -73 -12
-95 -15 -22 -3 -65 -10 -95 -15 -30 -5 -73 -12 -95 -15 -22 -3 -53 -8 -70 -11
-16 -3 -41 -7 -55 -9 -69 -9 -181 -26 -225 -34 -27 -5 -113 -19 -190 -31 -77
-12 -149 -23 -160 -25 -15 -3 -55 -74 -157 -280 l-138 -275 1535 0 1535 0
-230 460 c-178 355 -234 460 -248 460 -10 0 -21 -2 -23 -4z m127 -442 c86
-170 160 -319 164 -331 l9 -21 -1334 0 c-1243 0 -1333 1 -1327 16 4 9 38 81
77 159 l70 142 70 11 c38 6 135 22 215 35 80 13 163 26 185 30 22 3 94 14 160
25 66 10 194 31 285 45 91 14 262 41 380 60 118 19 247 39 285 45 88 14 117
18 185 30 30 5 75 13 100 16 25 3 54 8 65 9 11 2 40 7 65 11 25 3 77 12 115
18 39 7 71 12 73 11 2 -2 73 -141 158 -311z"/>
</g>
</svg>
