<?xml version="1.0" standalone="no"?>
<!DOCTYPE svg PUBLIC "-//W3C//DTD SVG 20010904//EN"
 "http://www.w3.org/TR/2001/REC-SVG-20010904/DTD/svg10.dtd">
<svg version="1.0" xmlns="http://www.w3.org/2000/svg"
 width="179.000000pt" height="179.000000pt" viewBox="0 0 179.000000 179.000000"
 preserveAspectRatio="xMidYMid meet">
<metadata>
Created by potrace 1.11, written by Peter Selinger 2001-2013
</metadata>
<g transform="translate(0.000000,179.000000) scale(0.100000,-0.100000)"
fill="#000000" stroke="none">
<path d="M748 1775 c-10 -11 15 -87 32 -97 14 -9 15 -15 5 -45 -13 -39 -10
-124 5 -154 19 -34 57 -51 115 -50 63 0 98 19 115 60 13 33 12 126 -3 155 -7
14 -5 22 6 31 18 13 37 57 37 86 0 31 -30 22 -45 -14 -14 -34 -38 -61 -47 -52
-9 9 -92 13 -113 5 -26 -10 -47 5 -64 48 -12 29 -30 40 -43 27z"/>
<path d="M618 1718 c-3 -7 -6 -76 -7 -153 l-2 -140 70 -60 c38 -33 70 -63 70
-66 1 -4 -29 -7 -65 -7 -64 0 -67 -1 -111 -43 -57 -56 -67 -74 -49 -88 11 -9
24 -1 62 39 47 49 49 50 106 50 32 0 58 -3 58 -8 0 -4 -31 -39 -70 -77 l-70
-69 0 -237 c0 -199 2 -238 15 -242 8 -4 17 -1 21 5 4 6 6 110 6 232 l-1 221
80 82 c73 76 85 82 80 45 -1 -8 4 -24 12 -36 14 -20 12 -24 -19 -54 -60 -57
-60 -125 -2 -271 31 -78 33 -96 39 -359 1 -46 6 -69 21 -88 19 -23 22 -24 37
-9 10 8 21 12 26 8 4 -5 5 0 2 10 -4 10 -3 16 2 12 5 -3 8 -18 7 -33 -2 -15 3
-37 12 -50 13 -20 13 -22 -2 -16 -9 3 -16 2 -16 -3 0 -5 8 -9 19 -10 13 -1 19
5 19 23 0 13 -4 21 -9 18 -5 -3 -9 -1 -9 5 0 5 6 12 13 14 10 4 10 6 0 6 -7 1
-13 6 -13 12 0 5 5 7 10 4 6 -3 10 -2 10 4 0 5 -6 12 -12 14 -9 4 -9 6 -1 6 8
1 12 49 13 172 1 169 1 173 34 258 59 153 57 222 -9 280 -25 22 -30 31 -19 35
8 3 14 19 14 38 l0 33 72 -72 72 -73 1 -225 c0 -168 4 -228 13 -237 26 -26 32
19 32 246 l0 228 -72 74 -71 74 59 0 c57 0 61 -2 102 -45 24 -25 49 -45 57
-45 28 0 15 31 -35 84 -50 52 -50 53 -107 51 -60 -2 -82 3 -65 14 5 3 37 30
71 60 l61 55 0 154 c0 153 0 153 -22 150 -22 -3 -22 -5 -20 -143 l2 -140 -73
-64 -72 -65 -3 35 c-5 51 -17 59 -88 59 -52 0 -65 -3 -77 -21 -8 -11 -14 -32
-12 -45 1 -13 0 -24 -2 -24 -7 0 -49 34 -107 86 l-51 47 0 141 c0 122 -2 141
-16 144 -9 2 -19 -3 -21 -10z m271 -1201 c8 -10 7 -14 -2 -14 -8 0 -14 6 -14
14 0 7 1 13 2 13 2 0 8 -6 14 -13z m36 3 c-4 -6 -1 -19 6 -28 12 -16 12 -16
-5 0 -16 14 -15 38 0 38 3 0 2 -5 -1 -10z m-15 -45 c7 -9 8 -15 2 -15 -5 0
-12 7 -16 15 -3 8 -4 15 -2 15 2 0 9 -7 16 -15z m-46 -25 c-6 -6 -10 -3 -10
10 0 13 4 16 10 10 7 -7 7 -13 0 -20z m91 20 c-3 -5 -12 -10 -18 -10 -7 0 -6
4 3 10 19 12 23 12 15 0z m-70 -39 c-3 -5 -1 -12 5 -16 5 -3 10 -1 10 6 0 7 3
9 6 6 9 -9 -16 -38 -27 -31 -5 3 -7 10 -4 15 4 5 1 9 -5 9 -6 0 -8 5 -5 10 3
6 11 10 16 10 6 0 8 -4 4 -9z"/>
<path d="M839 378 c5 -13 7 -40 6 -61 -2 -31 0 -36 11 -26 8 7 14 7 14 1 0
-15 -26 -33 -36 -24 -4 4 -3 0 4 -9 6 -9 9 -19 5 -23 -4 -4 1 -4 12 0 17 7 18
6 7 -8 -10 -13 -10 -17 4 -22 21 -8 37 2 30 21 -4 11 -1 13 14 8 13 -4 22 -1
26 9 3 9 10 13 16 10 13 -8 -10 -34 -31 -34 -14 0 -14 -2 -1 -10 10 -6 17 -5
23 6 5 8 11 12 15 10 4 -3 8 11 8 29 0 18 -4 31 -8 29 -4 -3 -8 0 -8 6 0 6 -4
9 -9 5 -15 -8 -24 14 -12 29 6 7 7 16 3 20 -7 7 -8 12 -11 38 -1 7 -8 5 -19
-6 -18 -15 -20 -15 -37 4 -24 27 -37 25 -26 -2z m25 -38 c-5 -5 -10 3 -11 18
-1 22 0 24 9 8 6 -10 6 -22 2 -26z m50 19 c-3 -6 0 -16 7 -21 11 -8 11 -9 -3
-5 -31 11 -28 -7 9 -41 21 -20 32 -32 25 -28 -7 4 -14 1 -18 -7 -5 -13 -22
-15 -78 -8 -5 1 1 12 14 26 22 23 18 31 -12 26 -17 -2 -6 18 12 24 11 4 18 10
15 15 -3 5 3 13 12 19 23 13 26 13 17 0z m-24 -139 c0 -5 -4 -10 -10 -10 -5 0
-10 5 -10 10 0 6 5 10 10 10 6 0 10 -4 10 -10z"/>
<path d="M883 309 c17 -10 17 -12 2 -29 -12 -14 -13 -20 -4 -26 7 -4 10 -3 5
4 -3 6 -2 13 3 16 5 3 12 -2 15 -11 5 -12 9 -14 18 -5 9 9 6 18 -12 37 -13 14
-28 25 -34 25 -6 0 -3 -5 7 -11z m35 -44 c-3 -3 -9 2 -12 12 -6 14 -5 15 5 6
7 -7 10 -15 7 -18z"/>
<path d="M942 195 c-7 -8 -9 -15 -4 -15 5 0 15 7 22 15 16 19 -1 19 -18 0z"/>
<path d="M841 197 c2 -1 13 -9 24 -17 19 -14 19 -14 6 3 -7 9 -18 17 -24 17
-6 0 -8 -1 -6 -3z"/>
<path d="M895 189 c-9 -14 0 -22 28 -26 17 -2 19 -1 7 6 -8 5 -18 7 -22 5 -4
-3 -8 -1 -8 5 0 5 6 12 13 14 9 4 9 6 0 6 -6 1 -15 -4 -18 -10z"/>
<path d="M867 154 c-4 -4 -7 -12 -7 -18 0 -6 5 -4 10 4 9 13 11 13 21 0 9 -12
10 -12 7 -1 -5 17 -21 25 -31 15z"/>
<path d="M856 103 c-6 -14 -5 -15 5 -6 7 7 10 15 7 18 -3 3 -9 -2 -12 -12z"/>
<path d="M955 99 c-4 -6 -5 -12 -2 -15 2 -3 7 2 10 11 7 17 1 20 -8 4z"/>
<path d="M913 75 c0 -8 4 -12 9 -9 5 3 6 10 3 15 -9 13 -12 11 -12 -6z"/>
<path d="M910 36 c0 -2 7 -7 16 -10 8 -3 12 -2 9 4 -6 10 -25 14 -25 6z"/>
</g>
</svg>
